<?xml version="1.0" standalone="no"?>
<!DOCTYPE svg PUBLIC "-//W3C//DTD SVG 20010904//EN"
 "http://www.w3.org/TR/2001/REC-SVG-20010904/DTD/svg10.dtd">
<svg version="1.0" xmlns="http://www.w3.org/2000/svg"
 width="2413.000000pt" height="1657.000000pt" viewBox="0 0 2413.000000 1657.000000"
 preserveAspectRatio="xMidYMid meet">

<g transform="translate(0.000000,1657.000000) scale(0.100000,-0.100000)"
fill="black" stroke="none">
<path d="M1557 16547 c-8 -13 -29 -37 -46 -53 -17 -16 -31 -33 -31 -38 0 -5
-7 -14 -17 -21 -17 -13 -10 -35 11 -35 7 0 23 11 36 25 13 14 27 25 31 25 7 0
52 42 78 73 11 14 11 20 1 32 -18 22 -46 18 -63 -8z"/>
<path d="M14795 16549 c-135 -21 -207 -59 -249 -132 -30 -52 -146 -349 -146
-374 0 -11 -18 -37 -40 -58 -37 -36 -49 -62 -64 -136 -5 -21 -24 -36 -97 -75
-212 -112 -254 -194 -205 -396 30 -120 28 -142 -12 -127 -35 14 -337 26 -394
17 -83 -14 -109 -70 -123 -258 -6 -78 -5 -87 16 -108 12 -13 35 -29 51 -34
l29 -10 -28 -30 c-37 -40 -182 -112 -307 -153 -81 -26 -124 -34 -216 -39 -63
-3 -191 -15 -283 -26 -164 -19 -168 -19 -188 -1 -11 10 -40 21 -65 25 -83 11
-109 30 -134 97 -39 108 -112 167 -220 176 -67 6 -68 6 -355 -104 -480 -185
-560 -214 -668 -247 -62 -19 -138 -39 -169 -46 -31 -6 -72 -22 -91 -34 -36
-25 -107 -40 -250 -56 -68 -7 -108 -18 -180 -51 -140 -63 -213 -85 -359 -109
-73 -12 -200 -34 -283 -50 -82 -16 -242 -45 -355 -65 -313 -55 -626 -135
-1000 -257 -597 -195 -725 -313 -837 -771 -23 -95 -27 -132 -27 -247 1 -74 7
-164 13 -200 6 -36 18 -125 26 -198 19 -173 53 -305 121 -472 31 -74 75 -191
99 -260 23 -69 55 -151 69 -184 15 -32 74 -183 131 -335 121 -324 161 -425
325 -826 266 -651 322 -779 446 -1006 41 -75 113 -234 163 -360 49 -123 142
-343 206 -489 189 -426 331 -839 546 -1588 72 -252 151 -520 176 -597 63 -198
72 -242 82 -426 10 -165 6 -889 -5 -1029 -5 -52 -1 -100 10 -155 19 -95 27
-65 -102 -415 -91 -250 -195 -563 -248 -748 l-29 -102 -80 -25 c-143 -43 -547
-110 -875 -145 -107 -11 -359 -41 -560 -65 -201 -25 -473 -56 -605 -70 -132
-14 -366 -39 -520 -55 -396 -42 -1330 -135 -1560 -155 -33 -3 -289 -28 -570
-55 -832 -82 -1254 -137 -1825 -235 -1124 -193 -1424 -242 -1835 -297 -172
-23 -303 -27 -765 -19 -157 2 -241 -9 -280 -37 -14 -10 -40 -43 -58 -73 -30
-48 -33 -60 -30 -115 4 -60 6 -63 105 -195 133 -178 197 -277 293 -458 97
-183 107 -231 91 -427 -13 -151 -33 -251 -117 -586 -57 -226 -84 -369 -84
-445 0 -21 5 -23 45 -23 l45 0 0 47 c0 26 11 117 25 203 32 206 102 702 114
815 6 50 11 149 12 220 2 129 2 131 -31 195 -53 105 -136 236 -224 354 -121
164 -167 234 -188 289 -18 47 -18 49 1 75 41 58 52 63 178 72 65 5 172 16 238
24 66 8 230 20 365 26 653 28 824 49 1810 216 1004 171 1304 210 2530 329 201
19 475 46 610 60 135 14 270 27 300 30 183 17 749 76 770 80 14 3 239 27 500
55 261 28 585 64 720 80 135 16 340 38 455 50 299 29 886 124 937 151 11 6 22
8 25 5 3 -2 -3 -37 -13 -76 -22 -82 -27 -87 -145 -120 -53 -15 -140 -25 -309
-36 -278 -17 -480 -45 -1425 -194 -242 -38 -534 -83 -650 -100 -304 -44 -345
-51 -345 -61 0 -14 56 -11 202 10 73 11 237 31 363 45 127 15 244 28 260 31
21 3 13 -4 -30 -24 -70 -33 -201 -65 -335 -81 -52 -6 -133 -18 -180 -25 -47
-8 -157 -23 -245 -34 -921 -115 -827 -106 -1115 -105 -289 2 -402 15 -225 28
295 20 837 85 888 106 53 21 -564 3 -858 -25 -88 -9 -302 -29 -475 -45 -553
-52 -705 -70 -1274 -155 -285 -42 -450 -70 -773 -129 -133 -25 -340 -59 -460
-76 -120 -17 -357 -53 -528 -80 -170 -27 -386 -59 -480 -70 -654 -78 -597 -77
-736 -21 -115 46 -304 87 -328 72 -25 -16 5 -39 66 -51 84 -18 180 -53 269
-100 109 -57 144 -59 335 -22 85 17 237 43 339 57 102 14 334 48 517 76 183
27 428 61 545 74 245 29 414 56 793 125 580 105 1106 176 1591 216 l316 25
127 -30 c257 -62 325 -63 627 -15 87 14 276 38 419 55 143 16 370 45 505 64
135 19 331 44 435 55 145 16 204 27 250 46 33 14 122 49 197 79 l137 54 355
46 c392 50 609 82 821 119 140 25 501 63 510 55 2 -3 2 -14 -1 -26 -6 -23 -43
-33 -214 -58 -58 -9 -121 -20 -140 -25 -19 -5 -78 -14 -130 -20 -336 -38
-1074 -138 -1169 -158 -37 -8 -55 -32 -24 -32 11 0 66 9 124 19 235 43 495 77
1059 136 74 8 187 22 250 31 63 8 136 14 161 12 l45 -3 -33 -106 c-32 -105
-34 -107 -67 -113 -35 -7 -61 -28 -49 -39 3 -4 19 -7 35 -7 28 0 28 -1 14 -28
-8 -15 -43 -70 -78 -122 -35 -53 -81 -138 -102 -190 -22 -52 -86 -196 -144
-320 -189 -408 -289 -632 -372 -835 -107 -260 -151 -347 -276 -542 -127 -196
-140 -225 -298 -645 l-25 -68 43 0 43 0 43 118 c23 64 68 171 98 237 54 118
67 141 186 327 94 147 160 281 247 499 123 311 262 626 489 1109 98 208 102
214 261 405 198 238 261 317 255 322 -2 3 -60 -52 -127 -121 -67 -70 -123
-125 -125 -123 -3 2 39 151 104 367 18 58 77 258 131 445 225 765 444 1333
785 2030 356 727 758 1353 1210 1885 143 168 517 535 665 653 246 196 549 395
690 454 36 15 94 47 129 71 34 24 81 48 103 53 48 11 109 2 109 -16 0 -7 -46
-39 -102 -71 -187 -105 -222 -126 -393 -245 -239 -166 -387 -289 -348 -289 5
0 85 57 178 127 281 209 412 289 550 332 39 12 103 38 143 58 94 47 93 47 243
-113 20 -22 60 -56 89 -77 43 -32 51 -43 45 -60 -3 -12 -9 -39 -12 -59 -8 -53
12 -50 80 12 30 27 62 50 71 50 9 0 16 -2 16 -4 0 -19 -29 -77 -50 -103 -16
-17 -36 -45 -46 -63 -24 -40 -95 -80 -204 -116 -75 -25 -100 -28 -215 -28
-160 -1 -257 24 -313 80 -38 38 -42 40 -42 21 0 -64 260 -167 421 -167 67 0
178 19 232 39 15 6 27 9 27 7 0 -2 -14 -36 -31 -77 -39 -96 -102 -305 -133
-444 -40 -177 -58 -320 -60 -478 l-3 -148 -96 -107 c-191 -212 -345 -432 -436
-623 -32 -68 -101 -235 -152 -371 -51 -136 -97 -244 -101 -240 -4 4 -35 95
-69 202 -68 215 -76 237 -90 223 -6 -6 -1 -39 15 -89 41 -134 54 -184 81 -322
l26 -132 -65 -153 c-107 -253 -181 -444 -230 -594 -81 -250 -98 -277 -275
-471 -62 -67 -109 -122 -105 -122 4 0 47 37 97 82 86 79 89 80 68 41 -30 -60
-74 -173 -148 -383 -36 -102 -105 -277 -153 -390 -48 -113 -120 -286 -160
-385 -276 -681 -378 -892 -516 -1063 -41 -51 -74 -96 -74 -100 0 -3 23 16 51
43 l51 50 -20 -40 c-11 -22 -53 -130 -95 -240 -41 -110 -99 -254 -127 -320
-28 -66 -108 -262 -177 -435 -68 -173 -178 -427 -244 -563 -66 -137 -135 -282
-154 -323 l-34 -74 47 0 47 0 99 223 c54 122 114 263 132 312 19 50 63 171
100 270 90 244 157 402 265 618 51 100 107 221 125 268 71 183 129 310 219
474 153 279 232 467 452 1075 278 769 310 845 460 1093 82 135 118 213 153
327 38 122 99 281 238 615 55 132 136 339 182 460 154 412 243 607 334 728
201 269 579 618 901 832 357 238 739 394 1125 459 268 45 762 80 1040 73 269
-6 1169 -45 1198 -52 12 -3 22 -1 22 4 0 12 -24 15 -297 43 -128 12 -233 25
-233 28 0 6 310 67 415 81 72 10 901 6 911 -4 3 -3 -41 -141 -61 -189 -6 -16
-23 -18 -146 -18 -79 0 -139 -4 -139 -9 0 -13 16 -17 145 -37 l111 -17 -38
-125 c-21 -69 -51 -193 -68 -276 -17 -83 -37 -167 -44 -186 -8 -19 -31 -80
-51 -135 -21 -55 -76 -179 -123 -275 -90 -186 -132 -278 -132 -285 0 -28 35
32 134 231 65 129 120 234 122 232 2 -2 -12 -85 -32 -184 -63 -326 -101 -629
-134 -1064 -12 -151 -27 -347 -34 -435 -17 -203 -20 -599 -6 -730 40 -368 160
-639 396 -895 38 -41 134 -138 213 -215 79 -77 186 -190 238 -252 155 -185
261 -248 413 -248 130 1 242 56 369 183 100 99 238 278 226 291 -3 2 -30 -20
-60 -49 -94 -93 -66 -26 87 208 55 83 103 152 105 152 6 0 -5 -129 -19 -225
-14 -99 -44 -153 -159 -290 -81 -95 -112 -142 -151 -225 -28 -58 -65 -136 -84
-175 -56 -118 -327 -545 -552 -873 -43 -62 -91 -138 -107 -169 -17 -31 -58
-105 -92 -165 -83 -144 -85 -148 -75 -148 5 0 26 25 46 55 20 30 39 55 42 55
3 0 3 -3 1 -7 -2 -5 -14 -42 -27 -83 -16 -55 -101 -254 -136 -318 0 -1 -52 -7
-115 -12 -63 -5 -131 -12 -152 -14 -36 -4 -38 -3 -23 13 9 10 41 74 70 143 30
68 91 185 137 259 45 74 120 206 167 294 46 88 106 187 133 220 42 52 56 81
101 215 59 178 81 232 132 315 39 66 42 75 23 75 -30 0 -273 -450 -321 -595
-9 -27 -64 -138 -122 -245 -58 -107 -142 -262 -186 -344 -98 -184 -118 -213
-207 -299 l-70 -67 -133 -25 c-73 -13 -266 -61 -428 -105 -488 -134 -667 -162
-748 -121 -69 35 -119 44 -189 31 -61 -10 -70 -9 -143 17 l-78 27 -93 -46
c-116 -58 -181 -107 -330 -247 -108 -102 -470 -489 -477 -511 -2 -6 15 -10 37
-10 39 0 46 6 303 263 273 273 366 351 493 416 66 34 80 38 113 30 20 -5 79
-9 131 -9 86 0 100 -3 175 -37 70 -32 91 -37 151 -36 88 1 291 45 550 118 376
106 557 144 780 164 409 37 522 43 823 46 398 4 492 13 812 71 518 95 736 157
1220 349 613 244 927 438 1183 735 123 143 202 260 277 415 108 221 142 349
155 580 11 190 -15 401 -86 691 -36 147 -67 227 -124 315 -90 139 -155 191
-365 293 -134 65 -224 98 -325 116 -69 12 -370 28 -557 30 -135 1 -144 2 -321
69 -60 23 -120 41 -135 41 -22 0 -16 -7 38 -36 36 -20 81 -51 100 -69 48 -45
106 -72 192 -90 40 -9 107 -26 148 -39 41 -13 122 -36 180 -51 137 -37 335
-115 435 -172 44 -25 119 -76 167 -114 49 -38 90 -69 94 -69 14 0 -37 68 -88
115 -96 89 -356 208 -613 280 -71 20 -132 39 -135 42 -9 10 354 -7 450 -22
120 -18 212 -50 371 -131 147 -76 215 -132 279 -230 64 -98 93 -175 150 -398
123 -483 101 -740 -96 -1126 -73 -143 -135 -235 -247 -365 -108 -126 -154
-171 -164 -162 -3 4 14 82 40 174 85 313 171 722 208 993 20 144 17 450 -5
557 -18 89 -37 135 -51 122 -3 -4 1 -31 9 -60 40 -140 44 -341 10 -579 -36
-260 -167 -846 -240 -1072 -74 -230 -98 -262 -266 -367 -94 -59 -416 -225
-513 -265 -40 -17 -39 -16 33 56 67 68 86 98 63 98 -6 0 -61 -49 -123 -108
-99 -95 -123 -112 -193 -141 -44 -19 -95 -40 -112 -47 -18 -8 -33 -12 -33 -10
0 6 320 300 500 460 186 166 185 164 179 171 -10 10 -559 -450 -719 -601 -82
-79 -95 -87 -177 -115 -124 -42 -342 -101 -356 -96 -6 2 53 69 132 150 79 80
141 152 139 159 -3 8 -76 -57 -180 -160 l-176 -173 -188 -34 c-104 -18 -231
-40 -281 -48 l-93 -14 22 36 c101 167 156 251 241 363 54 72 96 132 94 134 -2
3 -51 -44 -108 -104 -115 -120 -265 -308 -311 -390 -17 -28 -31 -52 -31 -53
-4 -2 -922 -16 -925 -14 -2 2 28 70 66 152 38 82 88 205 111 274 45 132 72
185 217 429 50 85 147 250 214 365 136 234 233 380 292 441 24 26 54 75 79
135 46 106 97 183 191 284 36 39 76 90 89 115 23 44 24 51 21 248 l-2 204 64
141 c91 203 150 357 195 509 47 161 57 185 109 268 l42 65 162 -3 c191 -3 192
6 7 40 -68 12 -125 23 -127 23 -1 1 10 32 25 69 l28 68 60 -6 c33 -3 112 -22
175 -41 115 -36 115 -36 340 -39 238 -4 370 -19 690 -77 317 -57 586 -133 755
-214 65 -31 111 -62 163 -110 98 -91 114 -131 172 -425 49 -250 47 -242 60
-393 17 -205 -12 -434 -82 -647 -30 -94 -139 -375 -201 -520 -17 -41 -57 -113
-88 -160 -74 -113 -112 -180 -107 -185 9 -9 113 88 156 144 24 31 63 97 87
146 24 50 45 85 45 78 0 -6 -16 -58 -36 -115 -61 -174 -215 -411 -352 -539
-217 -202 -667 -494 -1067 -691 -218 -107 -277 -128 -550 -198 -213 -55 -254
-62 -418 -76 -332 -26 -658 -67 -882 -110 -109 -22 -426 -100 -705 -174 -92
-25 -548 -181 -720 -247 -153 -59 -336 -138 -510 -221 l-105 -50 81 -1 81 -1
174 84 c406 195 767 325 967 346 67 7 99 17 160 48 152 79 344 126 677 167
116 14 334 41 485 60 151 18 327 39 390 45 260 25 492 74 655 139 249 99 914
531 1337 868 241 192 298 298 388 713 46 214 51 222 127 209 87 -14 138 -11
167 12 34 26 33 59 -1 126 -38 76 -61 68 -28 -10 32 -78 14 -94 -66 -57 -24
11 -56 20 -71 20 -32 0 -35 12 -13 62 8 20 23 68 33 109 l19 73 18 -37 c21
-45 41 -61 31 -26 -3 13 -11 60 -17 104 -13 101 7 300 31 300 20 0 306 -481
369 -620 67 -148 142 -402 197 -670 49 -243 76 -334 134 -464 101 -227 164
-508 214 -956 13 -114 35 -499 36 -617 0 -27 2 -28 46 -28 l47 0 -7 198 c-14
381 -59 731 -125 969 -21 76 -69 237 -106 358 -106 344 -113 368 -145 524 -46
219 -63 273 -175 551 -123 305 -214 491 -375 762 -66 111 -125 218 -130 238
-4 19 -16 103 -24 185 -29 273 -100 509 -189 624 -76 99 -202 174 -396 237
-277 90 -410 112 -961 154 -146 12 -292 27 -325 34 -33 8 -89 20 -125 29 -69
16 -118 26 -295 59 -60 11 -112 21 -114 23 -5 6 41 69 58 79 69 41 203 218
468 616 141 211 380 671 432 830 17 52 42 148 56 213 14 66 31 131 39 145 7
15 39 97 71 182 82 220 250 635 367 909 72 169 104 256 115 315 39 214 157
483 274 626 88 106 165 228 193 302 37 98 86 436 156 1058 27 237 38 304 108
653 57 283 59 288 94 325 63 67 160 196 181 241 24 54 20 145 -14 316 -28 137
-31 379 -9 630 24 269 21 324 -21 426 -43 106 -114 232 -195 345 -49 69 -64
99 -74 148 -33 171 -69 202 -337 290 -78 26 -229 83 -335 127 -106 44 -272
112 -368 151 -96 38 -278 114 -405 168 -126 54 -290 123 -363 154 -72 30 -161
73 -196 94 -38 23 -105 50 -163 66 -151 42 -403 126 -455 152 -25 13 -63 44
-85 70 -122 146 -122 146 -345 220 -113 37 -148 52 -148 65 0 22 -49 63 -113
95 -103 53 -311 126 -342 121 -25 -4 -33 0 -50 26 -25 39 -65 50 -114 32 -31
-11 -41 -10 -62 1 -13 7 -54 13 -91 14 -67 0 -67 0 -84 35 -22 46 -74 91 -121
104 -114 32 -368 38 -589 15 l-62 -7 -50 74 c-110 162 -258 311 -352 352 -64
28 -161 33 -256 12 -69 -15 -286 -81 -440 -134 l-51 -18 -204 127 c-403 251
-778 467 -1104 635 -104 54 -224 115 -265 137 -123 64 -257 87 -385 67z m240
-94 c169 -27 273 -75 558 -258 270 -174 683 -419 874 -520 210 -110 360 -212
453 -308 41 -42 94 -89 118 -104 24 -16 39 -31 35 -35 -4 -4 -43 -31 -85 -59
-103 -71 -220 -208 -283 -331 -10 -19 -19 -36 -20 -38 -2 -2 -16 3 -32 11 -60
31 -194 70 -205 59 -7 -7 11 -20 55 -42 35 -17 81 -49 102 -70 l38 -39 -41
-109 c-50 -131 -76 -227 -97 -346 -15 -90 -19 -270 -7 -361 l7 -50 -70 -17
c-38 -10 -119 -24 -178 -32 -97 -13 -123 -21 -237 -76 -160 -75 -305 -130
-463 -174 -343 -97 -594 -118 -887 -76 -108 16 -184 20 -300 18 -111 -2 -166
1 -194 11 -22 8 -74 46 -122 91 -93 86 -213 170 -321 224 -81 40 -93 55 -83
102 11 49 43 87 99 117 45 25 54 27 103 18 113 -20 186 -44 317 -103 135 -62
136 -62 226 -61 75 0 114 7 230 41 77 23 181 58 230 77 59 24 107 36 140 37
46 0 48 1 30 15 -13 10 -16 17 -9 20 29 10 264 170 371 251 141 107 215 182
272 279 34 57 59 85 116 128 101 76 178 120 255 145 85 28 88 34 16 26 -71 -8
-185 -52 -261 -101 -31 -19 -57 -35 -59 -35 -7 0 33 187 49 230 10 25 21 81
25 125 8 85 29 150 104 332 39 92 47 125 52 195 7 113 10 123 45 163 37 41 17
49 -28 11 l-28 -24 -27 48 c-31 54 -98 107 -238 185 -47 27 -137 80 -200 118
-182 111 -191 115 -316 158 -135 47 -253 61 -342 40 -108 -26 -176 -128 -171
-258 2 -62 2 -64 -38 -100 -22 -21 -45 -47 -51 -58 -11 -19 -15 -17 -62 32
-61 63 -60 73 10 218 70 144 116 205 187 243 53 29 66 31 153 32 52 0 136 -7
185 -15z m-45 -149 c30 -8 90 -32 133 -54 43 -22 97 -44 120 -47 61 -11 176
-58 307 -127 276 -145 338 -223 328 -412 -4 -69 -11 -97 -51 -188 -38 -87 -47
-118 -47 -165 l0 -57 -74 79 c-65 71 -166 156 -166 141 0 -3 30 -46 68 -96 37
-49 82 -119 101 -156 33 -66 33 -67 22 -135 -6 -38 -23 -99 -37 -137 -15 -37
-36 -106 -49 -154 -48 -182 -124 -263 -500 -530 -222 -157 -396 -251 -546
-294 -124 -36 -193 -31 -311 22 -49 21 -88 43 -88 49 0 10 -299 88 -387 101
-49 7 -126 76 -171 153 -22 38 -28 42 -30 25 -2 -12 20 -63 48 -113 l50 -92
-38 -47 c-51 -62 -112 -163 -112 -186 0 -10 7 -34 16 -53 13 -27 33 -42 98
-75 82 -41 211 -122 221 -138 12 -19 -85 -51 -555 -187 -496 -144 -488 -142
-550 -142 -121 -1 -256 75 -415 233 -121 120 -190 214 -262 359 -76 152 -132
344 -149 508 l-6 65 178 13 c361 24 769 78 894 116 41 13 129 37 195 54 66 16
163 43 216 60 53 17 99 31 103 31 3 0 6 -25 6 -55 0 -30 4 -55 9 -55 5 0 15
32 22 72 9 50 23 87 46 121 56 83 163 205 217 246 49 38 164 101 184 101 6 0
26 -16 45 -35 42 -42 79 -45 161 -14 76 28 108 68 105 128 -3 51 -6 49 77 36
81 -14 234 54 282 125 20 30 23 43 18 88 l-6 53 102 -78 c57 -43 154 -129 215
-191 l113 -114 -24 -41 c-37 -63 -48 -114 -35 -162 11 -40 48 -105 61 -105 4
0 4 24 1 54 -4 40 0 70 17 120 22 67 34 80 44 48 11 -34 94 -143 101 -132 12
19 -6 124 -30 175 -28 57 -110 135 -285 270 -240 184 -339 275 -374 343 -33
63 -8 153 62 225 64 66 51 71 564 -225 37 -21 103 -66 147 -98 84 -64 91 -67
91 -47 0 19 -219 214 -294 263 -36 23 -116 61 -178 84 -62 23 -147 58 -188 78
l-75 37 -3 75 c-4 110 34 170 119 190 51 12 70 11 129 -4z m-521 -419 c41 -38
46 -47 43 -79 -5 -57 33 -131 96 -189 l56 -51 -12 -56 c-14 -67 -47 -101 -130
-132 -76 -29 -116 -27 -140 8 -40 58 -55 115 -60 230 -5 135 13 219 59 276 17
20 33 36 36 36 3 0 27 -19 52 -43z m-154 -549 c16 -45 16 -49 -2 -78 -21 -36
-103 -80 -150 -80 -27 0 -38 7 -63 42 -34 47 -69 148 -77 224 -9 87 22 128
172 226 l90 58 6 -172 c5 -125 11 -186 24 -220z m3159 301 c94 -44 296 -264
431 -469 87 -132 170 -290 153 -290 -20 0 -240 64 -333 97 -74 26 -80 30 -86
62 -12 58 -39 82 -134 120 -50 20 -125 56 -169 80 -63 34 -86 42 -115 38 -47
-6 -113 31 -219 122 -44 38 -100 85 -125 104 l-46 35 47 20 c73 32 254 80 392
106 57 10 156 -2 204 -25z m1024 -422 c53 -14 92 -41 92 -62 0 -6 -18 -17 -40
-24 -105 -31 -319 -147 -403 -217 -16 -13 -32 -24 -36 -24 -5 0 -21 30 -36 68
-16 37 -50 111 -76 164 l-48 97 52 5 c28 4 70 8 92 10 84 8 351 -3 403 -17z
m-1104 -43 c108 -55 135 -73 151 -104 l15 -28 -28 10 c-44 17 -74 4 -149 -66
-73 -68 -152 -173 -198 -266 -15 -30 -29 -57 -31 -59 -1 -2 -23 5 -48 14 -66
25 -79 12 -19 -18 l52 -27 -33 -72 c-19 -40 -37 -88 -41 -105 -3 -18 -10 -33
-14 -33 -5 0 -56 18 -113 39 -58 21 -143 51 -189 65 -46 14 -89 29 -96 34 -9
6 2 38 42 120 30 62 60 115 67 117 8 3 57 -13 110 -35 137 -57 154 -49 23 11
-60 29 -112 53 -114 55 -3 2 17 35 43 73 66 97 176 198 266 245 147 77 200 83
304 30z m-3624 -119 c-75 -74 -141 -135 -148 -135 -6 0 -30 7 -53 17 -49 19
-69 57 -69 132 0 63 16 98 49 110 14 5 101 10 192 10 l166 1 -137 -135z m5060
-5 c5 -8 10 -27 10 -41 0 -53 21 -89 66 -115 24 -14 44 -30 44 -35 0 -4 -26
-25 -57 -45 -71 -45 -69 -42 -57 -54 7 -7 32 -3 75 10 35 12 79 25 96 31 31
10 41 6 143 -56 101 -61 116 -67 203 -80 96 -14 241 -61 290 -94 l28 -18 -83
-56 c-46 -31 -129 -100 -184 -154 -163 -158 -424 -469 -424 -505 0 -21 20 -3
59 52 113 161 354 422 457 496 64 45 117 70 216 99 l56 17 44 -29 c51 -35 147
-75 238 -98 76 -20 85 -24 164 -82 60 -45 174 -103 276 -142 77 -30 238 -73
253 -68 7 2 -17 19 -53 37 -36 18 -105 56 -155 85 -283 164 -319 182 -397 198
-108 22 -248 87 -327 151 -36 30 -90 70 -119 89 -71 47 -220 95 -329 106 -97
11 -138 23 -233 71 -128 64 -185 116 -205 184 -20 68 -20 68 26 64 39 -3 41
-5 64 -62 28 -69 59 -104 123 -139 57 -31 318 -99 349 -91 15 4 75 -14 170
-51 197 -76 210 -83 270 -152 46 -54 62 -64 164 -107 61 -27 151 -61 200 -77
144 -46 328 -127 396 -174 35 -25 81 -47 101 -50 132 -22 360 -112 642 -254
355 -179 726 -338 971 -415 157 -49 217 -83 239 -135 7 -17 10 -34 7 -37 -3
-3 -25 6 -50 20 -24 14 -47 23 -51 19 -3 -4 16 -28 44 -55 96 -92 309 -445
355 -591 28 -89 31 -163 10 -252 -8 -33 -15 -94 -15 -136 0 -42 -11 -135 -25
-205 -32 -163 -46 -277 -36 -287 4 -4 16 30 26 75 l18 83 24 -75 c50 -158 67
-325 39 -403 -13 -34 -133 -227 -142 -227 -3 0 -1 69 2 153 4 93 2 162 -4 177
l-10 25 -5 -25 c-3 -14 -20 -83 -36 -155 -17 -71 -42 -213 -56 -315 -14 -102
-44 -291 -65 -420 -22 -129 -53 -345 -70 -479 -43 -347 -97 -701 -131 -871
-35 -173 -73 -260 -185 -422 -42 -61 -87 -135 -101 -166 -78 -175 -202 -476
-248 -602 -29 -80 -72 -190 -95 -245 -71 -168 -254 -640 -319 -825 -34 -96
-80 -213 -101 -260 -51 -114 -54 -125 -90 -274 -37 -152 -63 -226 -160 -446
-127 -289 -226 -474 -348 -650 -94 -136 -296 -332 -437 -425 -60 -40 -164
-120 -230 -177 -207 -179 -268 -224 -337 -247 -109 -36 -190 -51 -277 -51 -75
0 -82 2 -76 18 3 9 40 148 80 307 40 160 94 367 120 460 58 210 116 457 110
464 -9 9 -14 -6 -53 -154 -43 -166 -131 -451 -254 -829 l-81 -248 -45 6 c-70
9 -161 54 -168 83 -4 13 5 115 19 226 14 111 22 206 18 210 -5 5 -14 -22 -20
-60 -13 -71 -78 -333 -85 -341 -11 -10 -113 100 -164 178 -30 47 -57 87 -58
89 -2 1 -7 1 -13 0 -11 -4 35 -113 82 -192 69 -116 180 -218 267 -245 19 -6
66 -13 103 -17 l69 -7 -7 -70 c-9 -87 5 -84 31 5 l18 63 95 13 c112 15 255 44
326 67 94 30 232 113 368 221 l67 54 -16 -43 c-10 -24 -49 -91 -87 -151 -80
-124 -86 -139 -122 -307 -47 -226 -140 -464 -238 -610 -27 -41 -80 -120 -117
-175 -93 -139 -123 -194 -169 -314 -45 -115 -89 -178 -191 -275 -122 -115
-255 -159 -367 -122 -59 19 -126 84 -251 241 -44 55 -118 138 -165 184 l-85
83 24 87 c22 79 92 424 128 636 21 122 70 549 101 890 86 936 137 1428 180
1735 33 241 41 338 25 323 -7 -6 -18 -60 -26 -120 -7 -59 -27 -214 -43 -343
-37 -285 -72 -592 -106 -930 -14 -140 -27 -255 -29 -257 -1 -2 -6 97 -9 220
-6 215 -10 257 -27 257 -5 0 -8 -206 -8 -457 l0 -458 -47 -325 c-54 -384 -73
-496 -126 -770 -44 -225 -87 -411 -99 -423 -8 -9 -172 160 -238 245 -112 145
-200 335 -247 530 -70 294 -79 451 -41 713 14 99 39 358 56 575 52 675 101
1078 172 1410 11 52 26 131 34 175 21 118 61 276 101 394 46 138 154 381 205
459 94 144 298 274 503 320 144 33 198 43 203 38 2 -3 -1 -36 -8 -73 -13 -73
-23 -93 -207 -458 -126 -250 -182 -379 -207 -480 -41 -160 -96 -695 -95 -916
0 -213 13 -260 22 -84 4 77 14 191 23 255 22 169 90 603 109 690 20 94 73 251
132 389 50 119 164 344 170 337 2 -2 -17 -138 -42 -301 -43 -280 -51 -362 -25
-264 6 23 54 223 106 443 52 221 102 424 110 451 9 28 49 124 90 215 128 290
163 390 334 960 53 174 111 333 162 440 44 92 51 116 58 195 4 50 12 101 18
115 9 23 10 22 15 -20 4 -25 8 -95 11 -157 9 -179 32 -307 121 -658 45 -181
90 -375 99 -430 45 -270 77 -491 88 -592 6 -62 15 -113 20 -113 4 0 8 108 8
240 0 181 -5 277 -20 397 -23 177 -34 224 -149 608 -113 375 -125 444 -125
680 1 150 5 215 23 309 32 179 97 354 163 443 l24 32 106 -142 c149 -201 249
-384 278 -513 14 -57 7 -285 -16 -519 -15 -167 -17 -201 -8 -192 10 9 62 297
85 467 29 214 24 274 -30 381 -68 133 -134 238 -246 390 -118 158 -158 234
-175 329 -25 136 34 490 81 490 49 0 49 12 3 45 -26 19 -68 61 -93 94 -28 36
-104 107 -191 177 -169 137 -300 249 -495 424 -77 69 -196 175 -265 235 -69
61 -141 127 -160 147 -19 21 -78 81 -131 133 -95 94 -95 95 -98 147 -1 29 -6
82 -10 118 -10 83 2 266 24 349 9 35 14 66 11 69 -9 8 -56 -105 -78 -188 -16
-58 -21 -108 -22 -222 -1 -82 -3 -148 -6 -148 -14 0 -197 55 -305 92 -140 47
-296 114 -485 207 -192 94 -204 103 -231 164 -23 49 -24 63 -24 242 0 211 11
279 71 464 73 224 177 400 327 557 132 139 252 222 382 264 84 28 320 35 335
10z m395 -65 c156 -51 261 -113 226 -134 -25 -16 -216 33 -286 74 -72 42 -106
95 -60 95 8 0 62 -16 120 -35z m-1604 -14 c118 -40 284 -109 346 -143 l52 -29
-57 -73 c-151 -189 -256 -440 -297 -706 -21 -135 -18 -269 10 -437 5 -29 3
-33 -17 -32 -13 0 -144 30 -292 67 l-269 68 -20 38 c-33 63 -47 144 -47 272 0
337 134 688 342 891 52 51 134 109 159 112 3 1 43 -12 90 -28z m-5469 -161
c21 -6 50 -26 68 -47 32 -36 33 -38 27 -114 -7 -109 -21 -121 -27 -27 -7 86
-27 126 -73 142 -42 15 -43 0 -2 -38 37 -35 37 -36 33 -100 -2 -36 -6 -68 -10
-71 -4 -4 -184 -35 -206 -35 -2 0 -3 38 0 84 3 57 10 92 22 111 20 30 14 45
-12 29 -56 -35 -88 -175 -79 -344 23 -440 248 -851 588 -1075 124 -82 201
-109 292 -102 37 3 67 3 67 -1 -1 -4 -17 -19 -36 -34 -24 -18 -67 -34 -131
-49 -78 -17 -132 -40 -287 -119 -405 -208 -806 -349 -909 -319 -44 13 -57 11
-64 -7 -3 -9 3 -21 16 -30 20 -15 20 -16 -32 -61 -142 -124 -465 -445 -523
-519 -76 -97 -57 -91 -294 -99 -339 -12 -623 29 -945 136 -169 56 -301 122
-479 239 -85 55 -157 100 -160 100 -47 0 213 -191 391 -288 l98 -53 -180 4
c-203 6 -363 31 -574 92 -249 71 -592 218 -736 314 -64 43 -85 50 -85 27 0
-24 54 -62 187 -129 189 -96 370 -170 633 -257 330 -111 404 -124 710 -125
l245 -1 95 -31 c218 -72 378 -101 593 -110 121 -5 149 -9 156 -22 5 -9 26 -65
46 -125 l37 -109 -22 -66 c-22 -69 -75 -163 -136 -243 -61 -81 -15 -53 94 57
57 58 109 105 117 105 17 0 28 -16 49 -70 14 -37 40 -64 143 -150 266 -222
612 -595 681 -732 40 -82 30 -162 -42 -331 -21 -48 -35 -91 -31 -95 9 -10 22
14 85 163 79 183 69 172 115 130 38 -34 171 -105 196 -105 8 0 10 -14 5 -47
-4 -27 -10 -100 -15 -164 l-8 -116 -70 -134 c-38 -74 -116 -219 -173 -324 -95
-175 -247 -479 -333 -667 -64 -139 -20 -82 62 81 154 305 396 735 513 910 77
114 89 152 64 199 -38 73 -17 57 220 -173 222 -215 280 -264 347 -290 32 -12
48 -26 60 -51 10 -19 12 -34 6 -34 -12 0 -325 -320 -435 -445 -123 -140 -331
-423 -505 -690 -58 -88 -208 -361 -261 -474 -45 -97 -138 -310 -138 -317 0
-17 25 17 61 84 99 179 593 981 716 1162 189 277 499 610 568 610 14 0 34 -13
50 -32 32 -38 46 -48 83 -54 42 -8 169 -122 214 -192 l19 -30 -120 -63 c-67
-34 -126 -68 -132 -76 -24 -28 2 -24 68 10 92 47 227 89 261 80 15 -3 45 -19
66 -35 34 -24 46 -28 81 -22 35 5 46 2 71 -19 30 -25 78 -111 89 -157 5 -23
-1 -28 -82 -64 -49 -22 -118 -52 -155 -67 -100 -41 -338 -198 -569 -375 -375
-288 -771 -677 -1091 -1075 -61 -76 -113 -137 -115 -135 -8 8 71 258 123 389
127 321 305 623 473 801 31 32 101 95 156 140 55 45 185 151 288 235 103 85
186 156 183 158 -18 18 -380 -211 -521 -328 -112 -94 -173 -168 -314 -383
-196 -299 -353 -643 -421 -921 -45 -184 -70 -240 -190 -420 -127 -190 -226
-353 -368 -605 l-104 -185 7 64 c8 77 47 205 85 281 15 30 53 88 82 129 49 65
62 94 117 262 68 207 76 271 19 149 -20 -41 -94 -196 -165 -345 -72 -148 -142
-302 -156 -342 -30 -84 -57 -216 -57 -283 0 -39 -17 -82 -104 -261 -132 -273
-247 -525 -322 -707 -82 -200 -85 -145 -5 100 33 101 68 212 79 248 11 36 31
95 45 133 14 37 22 67 17 67 -13 0 -103 -172 -146 -282 -22 -54 -43 -98 -48
-98 -6 0 -6 116 -1 288 10 343 8 568 -6 677 -7 50 -35 152 -75 270 -36 105
-125 390 -199 635 -238 789 -377 1201 -512 1513 -57 133 -171 420 -230 580
-33 90 -113 265 -201 441 -81 160 -194 404 -251 541 -58 138 -172 403 -254
590 -82 187 -170 394 -197 460 -53 134 -175 500 -215 643 -14 50 -50 148 -80
216 -107 247 -150 414 -165 646 -5 80 -14 179 -19 220 -25 183 1 322 90 501
112 222 238 303 709 458 383 125 707 210 970 255 429 74 767 139 811 156 26
11 72 33 101 49 79 45 127 59 240 71 57 6 120 13 141 16 32 5 37 3 37 -14 0
-11 7 -25 15 -32 12 -10 25 -2 72 43 48 46 79 64 178 105 66 28 188 79 270
115 199 85 413 159 615 212 175 46 213 51 272 35z m241 -214 c41 -9 23 -26
-28 -26 -38 0 -43 2 -38 20 3 13 12 19 22 16 9 -2 29 -7 44 -10z m4394 -112
c54 -20 133 -52 176 -72 73 -33 78 -37 73 -61 -3 -14 -15 -69 -26 -121 -26
-118 -37 -351 -21 -430 14 -66 68 -160 102 -177 21 -11 11 -13 -73 -13 -53 0
-130 7 -172 15 -149 28 -214 74 -266 187 -32 68 -34 81 -38 200 -6 174 21 344
76 481 18 46 21 46 169 -9z m-249 -758 c19 -51 85 -112 148 -136 53 -19 327
-60 407 -60 30 0 46 7 70 31 l31 31 130 -40 c72 -23 167 -50 211 -62 160 -41
154 -39 169 -74 16 -39 64 -71 126 -85 25 -6 122 -45 215 -87 287 -128 495
-214 610 -251 115 -36 119 -39 254 -160 61 -55 88 -73 110 -73 45 0 134 -73
361 -297 175 -171 208 -209 223 -251 25 -68 96 -191 148 -254 24 -29 90 -101
146 -159 100 -103 103 -108 103 -152 0 -97 -109 -416 -216 -632 -158 -321
-345 -547 -516 -624 -166 -76 -458 -114 -582 -77 -26 8 -63 26 -82 41 -37 28
-57 28 -34 -1 55 -65 197 -114 332 -114 92 0 90 4 36 -105 -60 -120 -162 -241
-234 -278 -48 -24 -132 -47 -256 -67 -133 -22 -171 -37 -198 -83 -34 -55 -21
-114 32 -139 29 -13 30 -15 14 -31 -27 -26 -59 -20 -96 18 -50 52 -90 43 -90
-20 0 -64 -56 -100 -78 -50 -17 36 -69 35 -105 -3 -30 -31 -50 -87 -41 -114 7
-23 -11 -23 -44 0 -41 28 -58 32 -80 16 -19 -13 -19 -12 -11 25 20 88 81 275
132 401 118 292 105 268 147 275 49 8 144 54 218 104 63 42 307 293 378 388
63 84 134 207 168 292 28 69 31 86 31 191 0 135 -12 166 -93 242 -90 84 -194
119 -294 99 -30 -7 -64 -18 -74 -26 -11 -8 -40 -15 -66 -15 -77 0 -224 -81
-324 -177 -150 -145 -304 -346 -411 -536 -31 -56 -67 -114 -79 -129 -30 -37
-39 -97 -21 -141 29 -69 131 -157 181 -157 9 0 25 -18 36 -41 13 -25 38 -51
65 -67 49 -30 52 -37 28 -64 -12 -13 -31 -18 -74 -18 -32 0 -61 5 -64 10 -10
17 -25 11 -25 -9 0 -11 11 -32 24 -46 33 -35 45 -114 20 -132 -22 -16 -56 -17
-71 -2 -6 6 -21 9 -34 7 -33 -4 -37 -48 -9 -86 21 -29 22 -31 5 -66 -19 -40
-56 -71 -99 -82 -21 -5 -33 -1 -52 17 -20 18 -29 21 -42 13 -30 -19 -25 -44
17 -89 34 -37 41 -52 41 -85 0 -55 -23 -95 -60 -109 -37 -13 -67 -3 -98 34
-15 17 -31 25 -45 23 -21 -3 -22 -8 -22 -94 0 -76 -3 -95 -19 -113 -31 -34
-56 -26 -118 40 -32 33 -62 58 -68 54 -19 -12 -23 -82 -10 -207 10 -94 10
-132 2 -140 -8 -8 -29 -6 -79 6 -77 20 -99 35 -108 76 -8 38 -31 58 -48 41 -8
-8 -11 -42 -9 -104 2 -78 0 -97 -17 -124 -24 -38 -67 -50 -126 -33 -49 14 -78
37 -100 81 -14 25 -21 30 -48 27 l-32 -3 -5 -90 c-6 -94 -17 -128 -50 -145
-46 -24 -100 1 -159 75 -40 50 -78 74 -65 42 8 -22 -79 -199 -116 -236 -30
-29 -38 -33 -74 -28 -51 7 -103 61 -129 136 -16 46 -21 51 -48 51 -32 0 -38
-9 -60 -94 -14 -53 -67 -116 -98 -116 -22 0 -68 51 -76 83 -4 12 -9 45 -13 72
-6 40 -11 50 -26 50 -20 0 -29 -20 -41 -88 -9 -53 -58 -107 -99 -107 -36 0
-84 29 -102 62 -8 13 -13 46 -14 75 0 55 -19 87 -48 81 -9 -2 -32 -35 -52 -73
-20 -40 -46 -76 -61 -84 -59 -33 -112 18 -144 142 -9 37 -21 67 -25 67 -4 0
-31 -31 -60 -69 -72 -95 -114 -112 -166 -68 -24 21 -27 30 -25 79 1 40 -3 61
-14 72 -23 22 -27 21 -81 -24 -68 -56 -133 -87 -145 -69 -5 8 -7 19 -5 25 2 6
7 37 11 69 6 44 4 59 -6 66 -20 12 -23 11 -49 -11 -25 -22 -120 -60 -151 -60
-36 0 -33 30 11 116 42 82 43 84 25 104 -23 26 -35 25 -96 -6 -57 -28 -119
-35 -143 -15 -24 20 -22 115 5 158 12 18 18 40 15 48 -9 25 -67 17 -135 -20
-45 -24 -67 -31 -72 -23 -12 20 2 81 33 140 43 82 37 90 -61 82 -101 -9 -151
0 -151 26 0 25 49 80 111 126 34 25 49 43 49 59 0 39 -21 47 -104 39 -55 -5
-76 -4 -76 5 0 31 50 112 99 159 53 51 55 55 36 68 -12 9 -46 14 -99 14 -102
0 -113 7 -92 48 21 40 69 78 153 122 52 27 69 41 71 59 6 38 -22 51 -104 51
-97 0 -107 4 -90 38 22 43 58 71 116 90 99 34 92 64 -22 102 -54 17 -68 26
-68 42 0 32 61 86 106 93 94 15 114 24 114 54 0 35 -14 47 -69 60 -117 26
-100 104 22 99 54 -2 87 11 87 36 0 6 -27 40 -60 75 -34 35 -60 71 -58 80 5
26 36 24 86 -6 68 -41 77 -43 101 -27 30 21 27 38 -21 117 -42 71 -65 167 -39
167 54 0 132 -109 145 -202 9 -61 38 -98 77 -98 62 0 105 38 208 183 74 104
162 184 233 213 l51 21 44 -33 c59 -45 110 -46 175 -5 25 16 49 34 52 40 12
19 38 12 173 -49 147 -67 182 -72 236 -36 l35 24 114 -13 c124 -14 294 -65
477 -141 131 -55 210 -98 492 -266 324 -192 434 -234 550 -209 158 34 324 189
415 387 73 158 172 504 214 747 24 144 27 335 5 396 -8 23 -39 83 -69 134 -31
50 -65 119 -76 152 -29 84 -50 214 -49 304 1 124 10 126 53 14 40 -100 157
-334 184 -365 20 -24 63 -23 94 2 14 10 38 44 54 75 16 30 32 55 35 55 3 0 12
-19 18 -42 17 -56 28 -68 60 -68 64 0 113 115 113 265 0 232 -94 563 -172 605
-25 13 -25 6 -1 -29 49 -68 104 -333 105 -506 1 -113 -25 -242 -46 -229 -26
16 -48 91 -48 166 0 42 -4 80 -10 83 -6 3 -10 -5 -10 -19 0 -42 -38 -131 -90
-211 -27 -41 -53 -75 -57 -75 -17 0 -135 193 -203 333 l-73 147 -8 118 c-9
137 -7 122 -19 122 -6 0 -10 -28 -10 -64 0 -84 -44 -306 -57 -292 -3 3 -21 51
-40 108 -19 57 -54 146 -79 198 -78 165 -154 263 -85 109 37 -83 75 -214 105
-364 33 -167 40 -218 27 -214 -27 10 -255 237 -307 306 -128 170 -164 258
-187 466 -7 59 -16 109 -22 110 -6 1 -13 -57 -17 -148 -5 -121 -38 -348 -52
-362 -1 -2 -18 32 -36 75 -73 169 -165 340 -176 329 -2 -2 7 -30 21 -61 14
-32 43 -109 65 -171 46 -134 174 -584 168 -591 -8 -7 -148 117 -234 208 -119
124 -243 296 -303 421 -29 59 -56 107 -61 107 -4 0 7 -46 27 -102 68 -202 125
-498 96 -498 -12 0 -120 67 -171 105 -25 20 -85 70 -133 113 l-87 77 -47 138
c-27 75 -52 137 -57 137 -5 0 -7 -12 -4 -27 3 -16 22 -113 41 -218 20 -104 40
-206 45 -225 21 -75 8 -69 -79 37 -48 59 -150 173 -225 253 -130 137 -196 225
-196 261 0 11 12 18 40 23 66 10 358 102 629 197 206 72 277 93 366 105 60 9
112 17 114 20 2 2 21 4 41 4 32 0 37 -4 48 -34z m-2466 -316 c37 -74 68 -141
68 -147 0 -7 -11 -13 -25 -13 -14 0 -25 -4 -25 -10 0 -5 14 -10 30 -10 l30 0
-26 -52 c-53 -104 -66 -192 -39 -268 20 -56 104 -203 160 -279 l43 -59 -25
-23 c-41 -40 -102 -139 -134 -223 -43 -110 -32 -125 20 -27 46 85 153 212 167
198 13 -13 -16 -188 -47 -282 -17 -49 -60 -152 -95 -228 -124 -263 -144 -342
-151 -620 l-5 -208 -34 40 c-44 51 -95 69 -130 46 -36 -23 -47 -60 -40 -137
l6 -68 -29 0 c-15 0 -40 -9 -55 -21 -36 -28 -35 -74 4 -125 37 -49 37 -54 1
-54 -15 0 -43 -10 -61 -22 -73 -50 -92 -113 -51 -168 l21 -30 -39 -35 c-47
-42 -71 -90 -71 -139 0 -43 23 -69 81 -92 l40 -17 -28 -17 c-40 -24 -101 -95
-109 -125 -7 -30 16 -70 46 -80 20 -6 18 -10 -20 -51 -63 -68 -96 -155 -72
-190 14 -22 72 -44 117 -44 47 0 56 -9 29 -31 -29 -24 -74 -113 -74 -146 0
-37 26 -69 65 -79 28 -7 32 -25 11 -44 -8 -6 -23 -32 -32 -56 -32 -83 4 -114
131 -114 l74 0 -30 -56 c-41 -79 -41 -153 0 -195 34 -34 60 -36 120 -9 24 11
45 20 47 20 2 0 3 -24 3 -54 -1 -29 4 -63 11 -76 18 -33 94 -63 142 -56 l39 6
-8 -37 c-11 -57 -8 -91 11 -112 25 -28 82 -34 141 -16 28 8 51 15 53 15 1 0 2
-16 2 -35 0 -81 50 -124 123 -105 23 7 57 20 75 31 l33 19 10 -28 c24 -63 83
-102 157 -102 40 0 60 7 102 35 59 40 60 40 60 22 0 -25 70 -95 106 -107 49
-16 94 -6 139 33 l39 34 29 -34 c77 -88 176 -91 245 -7 21 26 32 33 32 22 0
-10 17 -35 38 -58 31 -32 46 -40 73 -40 41 0 119 46 145 85 l17 26 33 -40 c63
-73 157 -100 230 -65 44 21 109 93 136 151 13 27 24 50 25 52 2 2 11 -3 20
-11 60 -52 147 -63 204 -25 32 21 69 79 82 126 5 20 7 20 47 6 49 -17 117 -19
155 -5 44 17 74 58 86 120 l11 57 42 -15 c33 -12 121 -17 441 -22 220 -4 407
-4 416 1 20 10 29 71 29 188 0 113 8 153 35 186 l22 29 32 -24 c43 -30 108
-37 149 -16 37 19 48 48 32 87 -10 23 -10 36 -1 56 11 23 13 24 29 10 34 -30
95 -25 132 12 19 18 33 25 42 20 7 -5 35 -9 62 -9 41 0 53 5 82 34 44 44 48
97 9 122 -58 38 -18 69 121 94 125 23 231 53 288 82 53 27 139 109 192 185 44
61 117 204 129 254 6 23 14 28 53 34 131 19 271 85 366 171 147 134 328 413
444 684 63 146 136 373 153 472 19 114 7 144 -95 238 -148 137 -241 234 -275
290 l-33 54 55 -49 c209 -187 353 -328 388 -377 22 -32 44 -58 49 -58 4 0 -2
-30 -15 -67 -38 -109 -57 -220 -58 -338 -2 -100 1 -115 25 -168 l28 -58 -21
-22 c-108 -114 -177 -302 -186 -511 l-6 -128 -33 -33 c-50 -50 -73 -106 -89
-213 -7 -53 -27 -135 -44 -182 -16 -47 -43 -138 -60 -203 -31 -119 -41 -144
-129 -347 -27 -63 -71 -180 -97 -260 -114 -352 -232 -650 -257 -650 -5 0 -30
-20 -56 -44 -43 -40 -57 -46 -171 -74 -176 -44 -415 -162 -520 -257 -20 -19
-61 -51 -91 -72 l-55 -38 -175 3 c-96 2 -178 6 -182 9 -5 2 -8 19 -8 37 0 19
-11 59 -25 90 -41 92 -56 208 -56 431 -1 148 3 220 16 278 9 43 13 87 10 98
-7 21 -95 69 -127 69 -39 0 -6 -95 36 -106 34 -8 36 -30 24 -259 -17 -353 -16
-451 10 -521 13 -34 24 -74 25 -90 l2 -29 -145 -6 c-152 -7 -317 -27 -485 -60
-250 -48 -296 -50 -795 -50 -477 1 -695 -9 -1000 -44 -69 -8 -140 -15 -158
-15 l-34 0 7 88 c3 48 18 170 31 270 14 101 24 185 22 186 -2 2 -20 6 -40 9
l-37 6 -3 -72 -3 -71 -54 -38 c-30 -21 -73 -43 -95 -49 -23 -5 -50 -13 -61
-16 -12 -3 8 23 49 66 38 40 66 74 63 77 -3 3 -41 -23 -84 -59 -123 -101 -320
-237 -344 -237 -14 0 -44 25 -86 70 -46 50 -83 79 -131 102 -64 32 -71 33
-184 33 -65 0 -118 4 -118 9 0 5 19 45 43 89 40 76 100 147 192 227 l40 35
-28 3 c-15 2 -42 -6 -61 -17 -44 -28 -48 -27 -44 10 2 24 -3 36 -23 52 -15 12
-32 32 -38 45 -10 19 -15 21 -33 11 -58 -31 -152 -138 -212 -242 -16 -26 -30
-46 -33 -44 -14 15 68 183 133 274 14 20 14 22 -4 32 -18 9 -26 2 -71 -66 -28
-42 -60 -100 -72 -129 -21 -51 -22 -52 -51 -42 -21 8 -37 7 -55 -1 -23 -11
-30 -8 -79 39 -29 28 -72 59 -96 69 -24 10 -87 58 -141 107 -54 49 -114 101
-133 116 -20 15 -46 49 -60 76 -30 61 -118 146 -178 172 -24 11 -50 27 -57 37
-27 33 -92 73 -118 73 -19 0 -41 14 -71 46 -25 26 -89 75 -142 110 -72 47
-102 73 -117 101 -10 21 -31 49 -45 62 -16 15 -29 43 -36 76 -14 66 -33 87
-123 128 -99 46 -362 257 -420 336 -23 32 -50 72 -59 89 -12 22 -28 34 -57 42
-53 14 -58 35 -29 115 32 90 21 107 -90 151 -127 49 -122 45 -354 324 -175
211 -434 481 -567 590 -82 67 -93 80 -117 139 -29 73 -54 106 -89 115 -22 6
-23 10 -18 59 4 44 0 66 -32 145 -20 50 -41 95 -46 98 -25 15 1 22 99 26 147
5 161 16 186 139 7 34 122 143 272 257 65 49 177 140 249 201 71 62 141 114
155 117 71 15 224 75 380 149 445 210 576 263 715 285 142 23 198 55 238 136
26 51 76 81 183 108 139 35 487 135 694 200 96 30 186 54 200 53 22 -2 34 -20
92 -137z m138 14 c19 -7 45 -13 58 -14 32 0 28 -10 -23 -60 l-44 -43 -10 24
c-5 13 -19 46 -30 73 -19 44 -20 48 -4 41 10 -4 34 -14 53 -21z m1078 -51 c30
-110 61 -275 72 -378 19 -192 19 -205 10 -205 -13 0 -110 123 -183 230 -50 74
-62 102 -93 215 -55 203 -57 194 -26 -107 14 -131 23 -241 19 -244 -10 -10
-165 136 -218 206 -51 67 -85 154 -96 240 l-5 45 158 2 c145 2 188 7 344 42 3
0 11 -20 18 -46z m-798 32 c0 -3 -9 -33 -20 -66 -26 -76 -63 -313 -55 -350 5
-23 0 -35 -28 -63 -19 -19 -43 -55 -52 -80 -17 -43 -17 -47 -1 -72 14 -21 16
-38 10 -92 l-7 -66 -23 30 c-35 42 -152 276 -159 317 -16 82 44 232 144 365
l62 82 65 0 c35 0 64 -2 64 -5z m120 -19 c0 -33 -27 -99 -67 -168 -25 -43 -46
-78 -47 -78 -7 0 30 209 44 246 7 16 15 20 39 16 17 -2 31 -9 31 -16z m124
-86 c5 -47 9 -130 9 -185 0 -102 -19 -245 -33 -245 -12 0 -50 99 -66 173 -15
71 -19 221 -8 301 l7 47 41 -3 41 -3 9 -85z m773 -224 c62 -69 71 -84 66 -108
-3 -16 2 -47 11 -71 17 -45 48 -70 103 -82 24 -5 38 -18 57 -50 41 -69 75
-105 101 -105 36 0 55 26 55 76 0 24 3 44 8 44 54 0 177 -34 217 -59 68 -43
109 -55 137 -40 13 7 26 16 29 21 6 9 229 -36 259 -52 8 -5 39 -33 68 -62 46
-47 53 -61 58 -104 5 -41 2 -61 -17 -100 -13 -27 -25 -53 -27 -59 -3 -5 10 4
28 20 37 34 60 81 60 124 0 23 5 30 22 33 32 4 50 44 42 93 -3 22 -26 105 -51
185 l-45 145 16 95 c8 52 18 121 22 153 l6 58 23 -55 c57 -140 152 -265 456
-599 42 -47 82 -53 110 -16 l19 24 0 -30 c0 -50 28 -145 66 -225 50 -107 59
-187 45 -429 -6 -108 -14 -207 -18 -220 -4 -16 -2 -22 4 -18 6 4 16 35 22 69
15 89 34 364 28 410 -7 52 6 48 31 -10 38 -87 43 -135 32 -261 -12 -140 -31
-226 -105 -481 -75 -263 -142 -399 -254 -520 l-42 -45 26 45 c80 135 189 413
210 535 12 68 -9 28 -64 -125 -120 -331 -235 -519 -338 -554 -120 -41 -200
-13 -551 196 -250 149 -399 225 -568 292 -205 81 -303 107 -406 109 -49 1 -88
3 -88 4 0 1 5 14 11 30 6 15 14 47 17 71 l7 42 38 -26 c61 -41 56 -19 -9 45
-57 55 -126 91 -176 91 -25 0 -23 -8 17 -67 51 -77 43 -160 -23 -220 -54 -50
-93 -42 -194 38 l-49 38 48 -6 c38 -4 52 -2 62 11 50 59 -117 103 -212 55 -23
-12 -67 -48 -98 -80 -62 -64 -89 -73 -117 -36 -9 12 -40 45 -68 73 -54 55
-114 75 -155 53 -27 -14 -20 -30 21 -50 32 -16 32 -16 9 -22 -38 -10 -47 -8
-68 14 -28 30 -36 90 -17 127 21 41 70 80 116 92 49 13 55 40 10 40 -75 0
-147 -55 -195 -149 -38 -76 -89 -233 -82 -253 2 -7 21 22 42 64 l39 76 26 -41
27 -42 -39 -34 c-22 -19 -76 -86 -121 -148 -44 -63 -91 -122 -105 -131 -23
-15 -25 -15 -38 2 -41 57 -44 353 -5 576 26 150 54 225 167 453 122 243 139
296 153 472 18 212 17 212 55 218 18 3 68 28 111 56 42 28 80 51 84 51 3 0 14
-14 23 -30 32 -57 83 -31 93 48 3 26 11 75 17 110 6 35 8 82 4 105 l-6 42 22
-30 c44 -60 274 -286 297 -292 55 -14 76 35 61 140 -6 39 -13 82 -16 96 -3 14
32 -32 79 -104 131 -201 134 -205 161 -205 53 0 66 72 41 220 -14 88 -58 261
-81 325 -4 11 13 -2 37 -30 24 -27 76 -85 116 -129z m-924 33 l6 -76 -36 -11
c-20 -6 -39 -9 -41 -7 -3 3 10 43 28 90 18 47 34 84 35 83 1 -2 5 -37 8 -79z
m38 -183 l25 -75 -70 -31 c-74 -33 -127 -40 -151 -20 -13 10 -12 17 1 48 8 20
23 44 34 54 10 9 24 26 32 36 14 21 76 62 93 62 6 0 22 -34 36 -74z m1680 22
c9 -7 31 -33 49 -58 19 -25 59 -74 89 -109 48 -55 52 -63 31 -58 -14 3 -55 11
-93 18 -75 14 -68 4 -87 121 -6 37 -13 75 -16 83 -7 18 7 20 27 3z m-314 -134
c-1 -2 -25 0 -52 4 -49 7 -49 7 -62 57 -7 28 -13 54 -13 60 0 5 29 -19 65 -55
35 -35 63 -65 62 -66z m2606 -1512 c131 -58 183 -167 151 -320 -26 -130 -121
-307 -230 -433 -331 -380 -357 -399 -553 -399 -117 0 -159 13 -194 62 -19 26
-19 29 -2 160 10 73 24 153 31 178 32 104 6 84 -57 -45 -22 -44 -47 -105 -55
-135 -8 -30 -17 -61 -19 -68 -6 -18 -76 19 -104 54 -31 40 -45 101 -32 144 14
49 130 224 231 350 108 135 272 299 341 342 58 36 109 61 109 53 0 -3 -26 -34
-58 -68 -66 -71 -252 -301 -252 -311 0 -22 37 11 122 109 105 121 236 249 306
297 88 60 174 70 265 30z m-704 -1259 c-150 -386 -255 -761 -266 -956 l-6
-110 -60 7 c-33 3 -163 6 -288 6 l-229 0 0 35 0 35 74 0 c92 0 167 10 160 21
-3 5 -57 9 -120 9 l-114 0 0 35 0 35 40 -20 c40 -20 103 -20 115 0 3 5 44 12
93 16 89 8 86 21 -6 23 l-43 1 16 30 c15 28 19 30 78 30 86 0 197 11 197 20 0
4 -57 11 -127 16 -110 8 -128 12 -131 27 -3 14 4 17 46 17 94 0 155 69 150
170 l-3 55 45 21 c48 22 105 79 121 121 5 13 9 39 9 58 0 27 6 37 34 53 37 22
61 76 53 118 -3 19 0 24 15 24 55 0 118 59 118 109 0 14 6 21 20 21 17 0 18
-3 9 -27z m-3605 -1460 c-3 -21 -1 -50 4 -64 9 -24 6 -31 -32 -68 l-43 -42
-15 23 c-25 40 -41 89 -32 97 21 19 116 91 120 91 2 0 2 -17 -2 -37z m-135
-227 c11 -13 6 -29 -30 -100 -28 -55 -53 -90 -72 -101 -16 -10 -52 -38 -80
-63 -50 -44 -153 -100 -164 -88 -9 8 20 67 76 161 38 63 55 81 76 85 15 3 31
12 35 20 4 8 17 38 30 65 12 28 38 71 58 98 l36 47 11 -54 c6 -30 17 -61 24
-70z m1094 -213 c-3 -21 -16 -85 -29 -143 -13 -58 -25 -120 -26 -139 l-3 -34
-105 -24 c-58 -13 -165 -44 -239 -69 -73 -25 -136 -42 -139 -39 -3 3 -7 56 -9
118 l-4 112 92 45 c51 25 138 71 194 103 97 54 220 106 257 107 14 0 16 -7 11
-37z m-836 -9 c56 -15 129 -68 184 -132 40 -47 59 -130 59 -261 l0 -78 -101
-44 c-258 -111 -619 -351 -870 -579 l-77 -69 -6 31 c-11 58 -6 290 9 394 18
122 71 315 117 433 29 73 38 86 66 98 37 15 37 14 -1 -40 -37 -54 -10 -36 84
53 107 103 197 154 339 195 87 24 106 24 197 -1z"/>
<path d="M14408 15071 c-49 -19 -96 -49 -138 -87 -14 -12 -45 -25 -70 -29 -70
-12 -208 -63 -280 -105 -113 -66 -205 -148 -186 -167 3 -3 32 19 64 48 67 63
173 122 258 144 57 15 124 20 124 10 0 -3 -11 -27 -24 -53 -13 -26 -33 -81
-46 -122 -12 -41 -33 -102 -46 -134 -17 -42 -21 -63 -14 -70 18 -17 43 23 146
232 132 269 168 299 335 290 124 -7 250 -79 284 -163 32 -76 14 -134 -66 -203
-46 -41 -186 -238 -176 -248 3 -3 38 26 79 63 41 37 105 95 143 127 87 77 109
123 102 215 -2 36 -6 73 -8 81 -3 11 11 16 59 23 34 5 62 13 62 18 0 5 -34 9
-75 9 -74 0 -76 1 -128 43 -82 67 -145 90 -257 94 -75 3 -105 -1 -142 -16z"/>
<path d="M14315 14831 c-3 -6 2 -43 11 -83 14 -59 24 -80 53 -110 45 -44 133
-73 193 -64 44 7 118 42 118 55 0 5 -46 10 -102 13 -67 3 -114 10 -133 20 -47
25 -92 79 -104 125 -12 44 -25 60 -36 44z"/>
<path d="M14997 14778 c-3 -13 -9 -57 -13 -99 -10 -114 17 -159 117 -194 35
-13 54 -6 28 10 -24 15 -100 132 -110 170 -6 22 -8 61 -5 87 7 48 -7 68 -17
26z"/>
<path d="M15200 14781 c0 -12 40 -51 52 -51 14 0 9 16 -9 32 -28 23 -43 30
-43 19z"/>
<path d="M14465 14290 c-27 -32 -50 -65 -50 -72 0 -37 88 3 105 48 12 30 13
84 3 84 -5 0 -30 -27 -58 -60z"/>
<path d="M20830 14035 c0 -8 5 -15 11 -15 20 0 289 -120 449 -200 85 -43 186
-87 224 -99 79 -24 76 -24 76 -12 0 17 -113 80 -209 118 -53 20 -193 78 -312
130 -119 51 -222 93 -228 93 -6 0 -11 -7 -11 -15z"/>
<path d="M18895 13500 c-3 -5 5 -15 17 -23 39 -24 188 -108 280 -157 94 -51
227 -151 327 -246 59 -56 65 -65 67 -105 3 -77 33 -360 49 -458 17 -101 31
-139 46 -124 7 7 2 46 -11 109 -26 121 -38 369 -21 430 14 53 131 175 184 195
39 14 49 29 20 29 -28 -1 -94 -34 -146 -74 l-48 -37 -27 21 c-15 11 -90 62
-166 113 -77 50 -168 118 -202 149 -61 57 -115 88 -154 88 -11 0 -62 22 -114
50 -53 27 -98 45 -101 40z"/>
<path d="M20224 13241 c-51 -31 -51 -42 -2 -39 38 3 43 1 40 -17 -5 -30 -82
-106 -217 -213 -162 -130 -223 -188 -250 -243 -26 -51 -57 -158 -49 -171 10
-16 24 -8 24 15 0 40 30 130 57 170 37 54 71 52 115 -9 18 -25 49 -54 68 -64
23 -12 67 -59 120 -127 47 -59 112 -143 146 -185 34 -43 64 -84 67 -90 2 -7 8
-10 12 -6 8 8 -21 53 -165 248 -59 80 -120 165 -136 190 -19 29 -47 54 -79 71
-61 32 -68 56 -23 85 18 12 80 52 136 88 57 37 135 97 173 134 63 62 69 71 69
109 0 32 -5 46 -22 57 -29 21 -46 20 -84 -3z"/>
<path d="M19965 13199 c-4 -6 -5 -12 -4 -14 8 -7 99 8 99 16 0 13 -88 11 -95
-2z"/>
<path d="M19220 13192 c0 -4 11 -23 25 -42 14 -19 25 -40 25 -48 0 -7 5 -10
10 -7 17 11 11 64 -10 85 -20 20 -50 27 -50 12z"/>
<path d="M19276 13021 c-10 -15 23 -107 48 -134 38 -41 62 -35 128 34 48 50
56 64 47 76 -7 8 -24 13 -38 11 -20 -2 -31 -14 -48 -51 -13 -26 -30 -50 -39
-54 -23 -9 -64 36 -71 79 -6 39 -17 55 -27 39z"/>
<path d="M21749 12961 c-36 -28 -142 -79 -261 -126 -107 -43 -222 -106 -343
-191 -36 -25 -65 -49 -65 -54 0 -4 48 19 108 52 109 62 245 128 263 128 28 0
-3 -39 -103 -131 -195 -178 -498 -475 -498 -487 0 -7 4 -12 8 -12 9 0 108 90
342 307 122 114 205 179 409 326 77 56 171 162 171 193 0 18 -3 18 -31 -5z"/>
<path d="M19530 12875 c0 -19 5 -35 10 -35 6 0 10 16 10 35 0 19 -4 35 -10 35
-5 0 -10 -16 -10 -35z"/>
<path d="M21713 12698 c-27 -30 -43 -62 -63 -128 -10 -30 -21 -63 -25 -72 -4
-10 -3 -18 2 -18 4 0 28 36 52 80 25 44 47 78 49 75 12 -12 -102 -258 -181
-390 -21 -36 -32 -64 -26 -69 5 -5 10 -8 12 -5 6 6 216 393 246 452 20 40 22
52 13 72 -15 32 -51 33 -79 3z"/>
<path d="M20912 12478 c-67 -49 -84 -68 -64 -68 15 0 152 100 152 110 0 18
-16 10 -88 -42z"/>
<path d="M20200 12292 c0 -11 89 -97 94 -91 7 6 -73 99 -85 99 -5 0 -9 -4 -9
-8z"/>
<path d="M20695 12276 c-27 -19 -13 -48 22 -44 31 3 44 35 21 49 -18 12 -21
11 -43 -5z"/>
<path d="M20560 12224 c-45 -20 -77 -50 -101 -96 -22 -44 -24 -62 -6 -76 17
-14 24 -9 90 74 31 40 68 81 83 93 l27 21 -29 0 c-16 -1 -45 -8 -64 -16z"/>
<path d="M21849 12153 c-6 -16 -47 -129 -91 -253 -118 -330 -237 -648 -403
-1070 -264 -674 -355 -909 -512 -1330 -184 -492 -315 -861 -308 -868 6 -7 23
34 105 253 83 222 277 724 546 1417 279 720 694 1837 694 1868 0 21 -21 9 -31
-17z"/>
<path d="M20356 12119 c-11 -34 -12 -79 -2 -76 17 6 31 66 18 79 -8 8 -13 8
-16 -3z"/>
<path d="M21359 11898 c-269 -506 -322 -604 -334 -616 -18 -20 -99 24 -152 80
-44 49 -63 94 -72 176 -3 29 -10 53 -16 53 -15 -1 -18 -69 -5 -136 16 -83 50
-145 109 -197 86 -77 145 -93 185 -49 38 42 407 864 393 877 -3 3 -51 -82
-108 -188z"/>
<path d="M20710 12041 c-71 -23 -110 -43 -137 -73 -28 -30 -60 -102 -69 -156
-8 -49 -41 -82 -83 -82 -14 0 -33 -5 -41 -10 -13 -9 -12 -12 4 -25 39 -30 142
-11 175 31 11 14 25 51 31 82 20 102 54 157 121 198 32 20 59 41 59 45 0 5 -1
9 -2 8 -2 0 -28 -8 -58 -18z"/>
<path d="M20863 11961 c-65 -24 -128 -67 -177 -121 -50 -55 -82 -130 -56 -130
5 0 16 15 24 34 21 50 93 124 148 152 46 23 108 31 155 18 31 -8 64 -81 70
-154 6 -67 17 -76 31 -27 28 91 20 173 -21 215 -34 34 -104 39 -174 13z"/>
<path d="M20290 11853 c-31 -48 -40 -98 -17 -91 6 3 24 27 39 54 48 87 29 118
-22 37z"/>
<path d="M21380 11714 c0 -17 22 -14 28 4 2 7 -3 12 -12 12 -9 0 -16 -7 -16
-16z"/>
<path d="M21336 11638 c-45 -77 -193 -390 -264 -559 -94 -222 -125 -312 -157
-455 -14 -65 -46 -198 -70 -294 -55 -218 -72 -298 -140 -630 -47 -230 -56
-287 -42 -269 2 2 34 124 71 271 81 327 207 769 236 835 12 26 32 112 45 189
34 203 124 441 291 776 41 81 74 155 74 163 0 27 -19 16 -44 -27z"/>
<path d="M21332 10078 c-7 -18 -51 -145 -97 -282 -80 -233 -101 -310 -74 -262
18 30 198 576 190 576 -3 0 -12 -15 -19 -32z"/>
<path d="M19646 9181 c-13 -21 -27 -208 -33 -446 -6 -279 1 -438 42 -890 34
-371 64 -863 72 -1150 4 -138 10 -228 14 -212 37 139 46 733 15 1052 -9 99
-24 225 -31 280 -22 152 -53 444 -65 600 -19 259 -11 643 15 748 6 21 3 27 -8
27 -9 0 -18 -4 -21 -9z"/>
<path d="M19324 7983 c-3 -15 -14 -62 -24 -103 -40 -162 -93 -552 -121 -883
-19 -236 -7 -718 25 -997 27 -229 58 -368 81 -363 15 3 22 76 14 140 -4 32
-19 126 -33 208 -77 452 -82 843 -21 1390 28 244 51 376 91 510 32 111 33 118
12 123 -12 2 -19 -5 -24 -25z"/>
<path d="M20471 7818 c-68 -209 -152 -499 -148 -511 2 -7 30 69 62 168 31 99
77 241 101 315 48 146 49 150 35 150 -5 0 -27 -55 -50 -122z"/>
<path d="M20161 7704 c-13 -29 -101 -359 -101 -378 1 -30 27 42 74 210 29 102
49 187 46 189 -4 2 -12 -7 -19 -21z"/>
<path d="M10668 14153 c-9 -19 -13 -104 -13 -268 0 -196 3 -256 18 -325 63
-291 180 -515 366 -701 105 -105 184 -153 242 -147 l33 3 -40 40 c-23 22 -80
69 -127 103 -163 120 -285 289 -361 502 -38 104 -82 289 -96 403 -12 96 -9
351 5 395 11 32 -13 28 -27 -5z"/>
<path d="M9676 13915 c-8 -21 8 -99 34 -168 69 -185 354 -473 675 -683 151
-98 389 -226 510 -273 229 -90 203 -61 -80 86 -277 145 -366 197 -501 294
-323 232 -548 499 -604 717 -11 43 -24 53 -34 27z"/>
<path d="M9190 13643 c1 -5 15 -17 33 -28 18 -11 43 -37 56 -58 13 -20 30 -37
38 -37 18 0 16 41 -3 69 -24 33 -125 77 -124 54z"/>
<path d="M8260 13585 c-47 -15 -109 -59 -99 -69 3 -4 18 -2 33 4 42 15 117 12
156 -8 41 -20 104 -105 247 -335 238 -382 330 -478 605 -636 114 -65 128 -70
128 -46 0 10 -26 28 -66 45 -176 79 -371 248 -485 420 -31 47 -115 191 -186
320 -71 129 -136 245 -143 256 -32 51 -116 73 -190 49z"/>
<path d="M8244 13348 c-12 -19 -6 -103 10 -141 34 -82 164 -253 249 -327 53
-46 58 -30 8 27 -42 47 -170 242 -216 329 -14 26 -25 62 -25 80 0 35 -14 52
-26 32z"/>
<path d="M7830 13267 c-39 -19 -61 -94 -67 -222 -10 -199 32 -275 183 -333
247 -95 614 -169 659 -132 37 31 13 59 -190 225 -66 54 -150 127 -187 163 -37
36 -71 63 -75 59 -10 -11 72 -91 247 -243 85 -73 161 -143 168 -154 11 -18 10
-20 -11 -20 -39 0 -236 38 -333 64 -109 30 -261 94 -310 131 -63 48 -74 77
-74 192 0 114 15 202 36 210 8 3 48 -16 90 -42 41 -26 77 -45 80 -42 8 8 -106
127 -137 143 -34 17 -47 17 -79 1z"/>
<path d="M9652 13218 c33 -61 198 -221 308 -301 117 -84 415 -233 571 -286
205 -70 380 -100 589 -102 101 -1 135 2 141 13 19 29 0 33 -152 34 -175 1
-301 19 -484 69 -360 99 -687 291 -891 523 -87 99 -120 119 -82 50z"/>
<path d="M11124 12719 c-8 -14 14 -29 44 -29 30 0 28 6 -7 25 -21 10 -32 12
-37 4z"/>
<path d="M7911 12248 c2 -9 58 -60 124 -114 352 -286 445 -390 445 -495 0 -41
-12 -66 -106 -223 -117 -196 -122 -211 -90 -318 18 -64 72 -141 101 -147 19
-3 19 -2 4 15 -34 40 -64 191 -49 245 5 17 50 91 100 166 51 74 98 150 106
168 18 44 18 128 0 163 -27 50 -241 247 -456 419 -155 124 -184 143 -179 121z"/>
<path d="M9580 11765 c-74 -13 -147 -28 -162 -34 -28 -11 -38 -31 -15 -31 19
0 370 79 375 85 11 10 -67 2 -198 -20z"/>
<path d="M9070 11611 c-93 -35 -146 -61 -233 -117 -82 -54 -222 -186 -273
-259 -33 -49 -36 -59 -31 -102 4 -42 12 -54 56 -95 114 -104 247 -141 511
-140 399 1 984 104 1128 198 48 32 8 30 -80 -4 -128 -48 -286 -86 -458 -111
-616 -88 -954 -59 -1089 95 -58 66 -33 132 104 270 111 112 242 199 385 254
53 20 85 41 65 40 -6 -1 -44 -14 -85 -29z"/>
<path d="M9055 10760 c-8 -13 29 -30 64 -30 29 0 31 -2 31 -39 0 -122 111
-470 155 -487 23 -9 32 4 17 24 -28 37 -82 162 -101 232 -22 78 -28 170 -16
233 l7 37 162 1 c248 0 279 14 51 22 -104 4 -229 9 -277 11 -48 3 -90 1 -93
-4z"/>
<path d="M9798 10763 c-38 -2 -68 -8 -68 -12 0 -4 37 -11 83 -14 106 -8 145
-22 154 -55 11 -46 -46 -469 -89 -657 -29 -126 -49 -162 -97 -175 -61 -16
-130 3 -201 57 -33 24 -64 52 -69 61 -5 9 -13 14 -17 10 -10 -11 71 -112 114
-141 46 -32 114 -57 156 -57 49 1 113 34 131 70 23 44 135 729 135 823 0 23
-8 45 -23 63 -21 24 -32 28 -83 29 -32 1 -89 0 -126 -2z"/>
<path d="M8570 10720 c0 -12 357 -381 409 -422 18 -16 43 -28 55 -27 16 0 -9
28 -99 112 -66 61 -174 165 -240 229 -65 65 -120 118 -122 118 -2 0 -3 -5 -3
-10z"/>
<path d="M11315 9956 c-123 -124 -398 -335 -474 -362 -20 -7 -63 -13 -96 -13
-120 -1 -205 70 -205 170 0 36 -23 35 -28 -1 -11 -74 57 -167 144 -200 80 -30
189 -28 253 5 82 41 202 138 309 249 92 96 181 211 171 220 -2 2 -36 -28 -74
-68z"/>
<path d="M11847 9483 c-121 -193 -242 -437 -406 -816 -88 -205 -175 -436 -166
-445 8 -8 8 -6 50 103 81 212 362 810 483 1028 45 81 82 152 82 157 0 22 -21
8 -43 -27z"/>
<path d="M10982 9263 c-86 -154 -252 -493 -252 -517 0 -12 23 21 53 74 29 52
108 188 175 301 121 205 140 249 104 249 -13 0 -37 -32 -80 -107z"/>
<path d="M11094 8583 c-9 -21 -28 -74 -44 -118 -15 -44 -76 -206 -135 -360
-160 -416 -226 -600 -284 -795 -98 -325 -120 -389 -166 -482 -89 -176 -180
-278 -249 -278 -94 1 -167 103 -188 263 -14 107 -3 204 43 356 17 57 29 105
26 107 -8 8 -86 -171 -107 -246 -13 -44 -24 -119 -27 -181 -5 -90 -3 -117 15
-176 29 -94 68 -145 136 -177 62 -29 101 -32 150 -12 80 34 178 158 274 352
76 151 99 215 128 348 85 392 183 697 400 1242 35 89 64 168 64 178 0 28 -19
17 -36 -21z"/>
<path d="M10558 8477 c-24 -35 -78 -145 -78 -157 0 -6 4 -9 9 -6 12 8 101 162
101 176 0 17 -17 11 -32 -13z"/>
<path d="M10541 8193 c-44 -77 -64 -129 -38 -103 24 24 100 170 88 170 -5 0
-28 -30 -50 -67z"/>
<path d="M11165 7928 c-3 -7 -21 -71 -40 -142 -35 -130 -43 -177 -26 -146 9
15 91 280 91 293 0 12 -20 8 -25 -5z"/>
<path d="M11026 7212 c-74 -197 -71 -189 -58 -177 14 12 132 300 132 321 0 39
-20 0 -74 -144z"/>
<path d="M14590 10993 c0 -19 41 -43 73 -43 29 0 127 38 127 49 0 3 -45 6
-100 6 -71 0 -100 -3 -100 -12z"/>
<path d="M14421 10896 c-47 -76 -69 -196 -36 -196 10 0 15 11 15 35 0 42 26
121 51 157 23 31 24 38 5 38 -8 0 -24 -15 -35 -34z"/>
<path d="M14653 10800 c-73 -16 -146 -99 -162 -183 -5 -26 -16 -56 -25 -66
-15 -16 -22 -41 -12 -41 3 0 35 7 73 16 94 22 294 22 392 -1 41 -10 105 -30
142 -46 63 -27 127 -37 142 -23 11 11 -13 43 -44 59 -16 9 -62 45 -101 81
-170 156 -308 225 -405 204z m170 -77 c56 -31 176 -137 165 -148 -3 -4 -55 1
-115 11 -77 12 -139 15 -215 11 l-107 -6 16 42 c20 54 59 106 87 118 35 15
113 2 169 -28z"/>
<path d="M14563 10414 c-13 -3 -23 -11 -23 -18 0 -14 186 -42 224 -35 27 5 31
26 9 38 -22 11 -176 22 -210 15z"/>
<path d="M13910 13220 c0 -5 16 -10 35 -10 19 0 35 5 35 10 0 6 -16 10 -35 10
-19 0 -35 -4 -35 -10z"/>
<path d="M14476 12498 c-31 -24 -16 -51 39 -69 28 -9 67 -26 87 -38 44 -26
105 -25 122 2 16 25 -11 68 -56 90 -50 25 -167 34 -192 15z"/>
<path d="M15853 12456 c-72 -17 -98 -29 -135 -64 -61 -56 -19 -112 84 -112 30
0 92 11 138 24 131 38 192 46 343 46 153 0 167 7 87 47 -120 60 -381 90 -517
59z"/>
<path d="M14495 12321 c-9 -15 49 -71 74 -71 11 0 31 5 45 12 25 11 25 12 -32
35 -31 13 -62 26 -68 29 -7 3 -15 1 -19 -5z"/>
<path d="M14865 12233 c-75 -91 -130 -176 -198 -307 -59 -112 -70 -159 -40
-170 29 -11 58 31 106 152 52 130 115 247 177 327 44 57 47 65 26 65 -8 0 -40
-30 -71 -67z"/>
<path d="M15715 12190 c-10 -16 20 -46 71 -70 56 -28 104 -19 156 28 46 41 48
55 8 40 -30 -10 -130 -6 -196 7 -20 4 -34 3 -39 -5z"/>
<path d="M18390 11210 c-106 -22 -235 -113 -266 -187 -23 -54 -17 -93 22 -150
50 -73 45 -87 -37 -94 -184 -15 -296 -170 -249 -341 19 -67 87 -128 142 -128
37 0 129 59 193 124 71 71 120 134 112 142 -3 4 -32 -16 -64 -44 -74 -64 -200
-142 -230 -142 -32 0 -60 31 -73 80 -28 104 45 209 170 244 106 30 123 65 80
168 -22 53 -22 56 -5 91 28 59 78 97 128 97 49 0 113 -27 142 -59 30 -34 33
-136 6 -189 -22 -43 -16 -55 12 -24 48 53 71 161 45 217 -16 36 -68 65 -127
72 -28 3 -51 10 -51 14 0 5 26 16 57 25 65 19 138 14 183 -13 23 -13 32 -15
42 -5 9 9 8 18 -8 39 -40 55 -134 81 -224 63z"/>
<path d="M17585 9260 c-8 -13 15 -24 27 -12 6 6 4 11 -6 15 -8 3 -18 2 -21 -3z"/>
<path d="M17370 9070 c0 -5 22 -10 49 -10 28 0 53 5 56 10 4 6 -15 10 -49 10
-31 0 -56 -4 -56 -10z"/>
<path d="M337 16428 c-12 -9 -18 -23 -15 -39 3 -27 0 -26 126 -12 60 7 87 5
157 -12 99 -25 171 -60 193 -94 16 -23 15 -25 -17 -51 -29 -25 -123 -66 -206
-90 -16 -5 -41 -12 -54 -16 l-24 -7 7 69 c11 111 12 118 20 142 17 51 -50 74
-71 25 -6 -16 -14 -68 -17 -118 -8 -119 -13 -135 -42 -135 -32 0 -32 -28 0
-36 21 -5 25 -14 31 -62 11 -85 28 -112 70 -112 28 0 35 4 35 20 0 11 -6 20
-14 20 -10 0 -16 20 -21 66 -8 73 -2 84 48 84 15 0 27 5 27 10 0 6 9 10 20 10
32 0 200 69 237 97 19 14 39 35 44 45 15 29 -4 68 -49 98 -20 14 -39 27 -42
30 -3 4 -25 14 -50 23 -118 44 -358 71 -393 45z"/>
<path d="M1048 16350 c-26 -22 -39 -42 -44 -68 -4 -20 -15 -59 -24 -87 -10
-27 -18 -57 -18 -65 0 -8 -5 -42 -11 -75 -15 -85 -9 -130 20 -154 13 -11 32
-20 41 -21 24 0 87 59 150 139 28 36 54 69 58 74 3 4 7 -29 9 -74 3 -110 12
-131 53 -127 40 4 48 28 18 58 -20 20 -21 25 -10 137 6 64 15 136 21 162 13
60 5 91 -24 91 -12 0 -46 9 -75 20 -76 29 -120 26 -164 -10z m170 -52 c9 -7
20 -17 23 -22 8 -10 -30 -107 -47 -121 -7 -5 -24 -28 -39 -50 -30 -45 -133
-155 -146 -155 -4 0 -10 3 -12 8 -5 7 16 146 26 172 3 8 15 48 27 88 17 59 27
76 51 91 33 20 84 15 117 -11z"/>
<path d="M1488 16238 c-1 -46 -1 -92 -1 -103 1 -11 -3 -40 -9 -65 -11 -52 -3
-140 16 -165 10 -14 21 -16 54 -10 24 4 49 13 56 21 8 8 19 14 24 14 13 0 97
88 97 102 0 23 -36 20 -63 -4 -36 -33 -118 -79 -126 -71 -11 11 -6 100 9 173
8 40 13 76 10 81 -4 5 -2 25 4 45 14 49 5 64 -35 64 l-34 0 -2 -82z"/>
<path d="M2074 16272 c-22 -20 -53 -62 -69 -92 -15 -30 -38 -68 -51 -83 -13
-16 -24 -32 -24 -35 0 -10 -46 -62 -55 -62 -4 0 -5 7 -2 15 11 27 18 220 9
250 -5 20 -16 31 -30 33 -18 3 -22 -2 -23 -25 0 -15 -2 -93 -5 -173 -7 -184
-2 -210 34 -210 20 1 35 11 57 43 16 23 45 65 65 92 19 28 46 72 60 98 14 26
37 59 51 73 l27 26 12 -69 c6 -37 16 -94 20 -126 12 -83 30 -107 82 -107 51 0
96 29 132 84 32 50 33 66 2 66 -16 0 -33 -13 -52 -37 -32 -43 -54 -62 -71 -63
-22 0 -59 144 -65 255 -2 33 -33 85 -51 85 -7 0 -30 -17 -53 -38z"/>
<path d="M2488 15976 c-21 -16 -23 -45 -5 -70 9 -12 23 -17 47 -14 28 2 37 9
45 32 8 24 6 31 -14 47 -27 22 -49 24 -73 5z"/>
<path d="M12061 7703 c-166 -175 -365 -407 -502 -585 -49 -65 -105 -129 -124
-143 -18 -15 -70 -83 -116 -153 -45 -70 -133 -203 -195 -297 -63 -93 -114
-177 -114 -185 0 -21 27 8 97 107 32 44 106 137 164 205 58 67 133 157 166
198 33 41 73 86 88 100 15 14 40 52 55 85 61 135 265 396 596 763 31 34 51 62
46 62 -6 0 -78 -71 -161 -157z"/>
<path d="M17206 7528 c-19 -29 -48 -77 -63 -107 -21 -41 -35 -57 -58 -63 -195
-56 -395 -159 -395 -204 0 -17 1 -17 83 38 114 77 274 135 299 110 7 -7 2 -40
-16 -104 -31 -110 -57 -238 -92 -443 -29 -172 -49 -217 -108 -247 -81 -41
-291 -33 -329 13 -31 39 -52 128 -52 229 0 87 3 101 32 160 18 36 40 75 49 88
29 39 -2 24 -44 -22 -80 -87 -116 -194 -110 -326 3 -71 9 -98 34 -146 42 -85
69 -98 216 -103 160 -4 238 18 297 85 51 59 57 81 76 289 19 219 40 362 65
452 25 91 89 230 135 294 37 52 40 59 26 59 -5 0 -25 -24 -45 -52z"/>
<path d="M13475 6385 c-122 -26 -191 -74 -221 -150 -26 -70 -16 -122 42 -202
48 -65 89 -100 65 -55 -6 11 -11 22 -11 24 0 3 27 2 60 0 78 -6 137 16 184 68
72 80 73 166 1 237 l-42 43 50 15 c28 8 58 15 66 15 9 0 23 5 31 10 23 15
-153 11 -225 -5z m53 -101 c32 -21 31 -92 -2 -123 -59 -55 -141 -46 -162 19
-20 60 7 106 69 120 36 9 62 4 95 -16z m-200 -74 c-1 -66 54 -110 138 -110 42
0 51 5 90 44 48 47 59 36 24 -22 -41 -67 -123 -95 -195 -67 -77 29 -113 102
-81 164 9 17 18 31 21 31 2 0 3 -18 3 -40z"/>
<path d="M17752 6309 c-15 -24 -15 -42 0 -37 14 5 30 46 20 52 -5 3 -13 -4
-20 -15z"/>
<path d="M10787 5958 c-125 -230 -134 -248 -120 -248 11 0 248 449 240 456 -3
3 -57 -91 -120 -208z"/>
<path d="M17583 6052 c-32 -37 -115 -142 -185 -233 -69 -91 -146 -186 -170
-212 l-43 -48 -40 20 c-25 13 -87 26 -170 36 -71 8 -240 33 -375 55 -135 21
-297 46 -360 55 -180 26 -367 62 -463 90 -49 14 -139 32 -200 41 -62 8 -152
22 -201 30 -109 19 -549 64 -556 58 -7 -8 23 -24 47 -24 64 0 464 -76 581
-111 107 -30 166 -41 267 -49 145 -11 239 -25 530 -76 631 -112 853 -158 862
-181 2 -6 -6 -38 -20 -70 -13 -32 -37 -89 -53 -128 -16 -38 -38 -78 -49 -87
-20 -17 -19 -17 16 -18 57 0 82 28 135 155 27 63 52 115 55 115 8 0 19 -53 19
-91 0 -16 5 -29 10 -29 6 0 10 34 10 81 0 44 5 90 12 102 19 37 248 356 335
468 46 59 83 110 83 113 0 19 -26 -2 -77 -62z"/>
<path d="M14655 5950 c-16 -18 -17 -32 -11 -120 6 -95 5 -100 -13 -100 -11 0
-32 -10 -47 -23 -22 -19 -25 -28 -19 -55 7 -35 16 -40 35 -17 23 28 47 27 77
-3 22 -23 50 -34 118 -50 138 -32 330 -62 435 -67 110 -5 120 -10 -170 72
-355 99 -330 90 -346 128 -27 64 -14 195 20 195 7 0 20 7 27 16 32 39 -72 62
-106 24z"/>
<path d="M14920 5501 c0 -16 9 -18 160 -41 218 -33 927 -170 1173 -226 37 -9
100 -22 140 -30 187 -36 242 -48 372 -79 204 -49 198 -49 225 -27 20 16 21 21
10 41 -11 21 -17 23 -58 17 -69 -9 -265 11 -352 35 -41 12 -83 21 -93 21 -10
0 -37 6 -60 14 -23 8 -116 31 -207 50 -91 19 -181 39 -201 44 -20 6 -180 35
-355 64 -176 30 -411 71 -524 90 -226 40 -230 40 -230 27z"/>
<path d="M15492 5478 c3 -7 33 -18 69 -25 465 -88 559 -103 559 -94 0 12 -563
131 -617 131 -8 0 -13 -6 -11 -12z"/>
<path d="M16430 5303 c0 -5 51 -24 113 -42 61 -19 147 -44 191 -57 91 -28 176
-32 176 -9 0 23 -54 45 -139 56 -80 9 -262 41 -314 54 -15 4 -27 3 -27 -2z"/>
<path d="M10349 5127 c-30 -41 -139 -253 -139 -270 0 -38 18 -9 90 138 72 148
85 181 49 132z"/>
<path d="M12850 4910 c-70 -20 -153 -92 -166 -146 -4 -14 -4 -76 -2 -138 4
-85 10 -123 27 -160 25 -58 36 -56 22 5 -6 24 -11 65 -11 92 l0 47 41 -27 c85
-56 214 -40 283 37 72 80 73 166 1 237 l-42 43 31 9 c24 7 9 9 -64 9 -52 0
-106 -4 -120 -8z m128 -76 c32 -21 31 -92 -2 -123 -59 -55 -141 -46 -162 19
-20 60 7 106 69 120 36 9 62 4 95 -16z m-200 -74 c-1 -66 54 -110 138 -110 42
0 51 5 90 44 48 47 59 36 24 -22 -41 -67 -123 -95 -195 -67 -77 29 -113 102
-81 164 9 17 18 31 21 31 2 0 3 -18 3 -40z"/>
<path d="M12360 3566 c-157 -45 -231 -128 -217 -245 7 -61 47 -163 66 -169 10
-4 12 0 6 14 -21 52 -20 54 21 33 49 -25 135 -25 189 0 81 36 135 129 120 207
-7 38 -62 102 -110 131 -18 10 -16 12 22 18 24 4 40 11 37 16 -7 13 -81 10
-134 -5z m68 -102 c32 -21 31 -92 -2 -123 -59 -55 -141 -46 -162 19 -20 60 7
106 69 120 36 9 62 4 95 -16z m-200 -74 c-1 -66 54 -110 138 -110 42 0 51 5
90 44 48 47 59 36 24 -22 -41 -67 -123 -95 -195 -67 -77 29 -113 102 -81 164
9 17 18 31 21 31 2 0 3 -18 3 -40z"/>
<path d="M18020 3498 c0 -7 30 -47 67 -88 79 -91 136 -176 233 -349 119 -213
196 -291 336 -341 81 -28 116 -24 56 8 -65 34 -145 95 -186 143 -20 24 -61 89
-91 146 -104 195 -157 276 -232 354 -65 67 -155 139 -176 139 -4 0 -7 -6 -7
-12z"/>
<path d="M21845 3202 c-174 -90 -245 -131 -245 -144 0 -14 14 -8 164 74 238
128 276 149 276 154 0 13 -42 -5 -195 -84z"/>
<path d="M21659 2711 c-114 -88 -150 -121 -132 -121 11 0 157 109 218 163 80
70 26 44 -86 -42z"/>
<path d="M23035 2728 c16 -106 25 -125 45 -89 8 15 5 33 -11 75 -25 67 -44 74
-34 14z"/>
<path d="M9028 2744 c-3 -3 -132 -13 -287 -23 -155 -10 -284 -21 -288 -24 -17
-18 21 -19 204 -7 109 7 246 16 305 19 107 6 135 14 108 31 -17 11 -34 13 -42
4z"/>
<path d="M18999 2630 c27 -23 66 -23 66 0 0 11 -13 16 -45 18 l-45 2 24 -20z"/>
<path d="M7665 2619 c-104 -10 -359 -34 -565 -54 -206 -20 -436 -42 -510 -51
-74 -8 -324 -35 -555 -60 -644 -68 -1256 -150 -1648 -219 -108 -19 -199 -35
-202 -35 -3 0 -5 -5 -5 -11 0 -18 94 -6 514 61 655 105 979 147 1601 210 160
16 463 47 675 69 212 22 504 52 650 66 146 15 281 30 300 35 33 8 33 8 -15 8
-27 -1 -135 -9 -240 -19z"/>
<path d="M21660 2543 c-77 -53 -324 -266 -570 -493 -69 -63 -150 -136 -179
-162 -30 -26 -53 -50 -50 -53 7 -6 125 93 299 250 156 141 349 307 458 393 75
60 95 82 74 82 -4 0 -19 -8 -32 -17z"/>
<path d="M20625 2398 c-316 -282 -661 -635 -641 -655 3 -4 10 -2 15 3 124 140
254 273 452 459 357 337 365 345 354 345 -6 0 -87 -68 -180 -152z"/>
<path d="M4455 2503 c-346 -46 -929 -130 -1055 -153 -91 -16 -304 -50 -475
-75 -305 -45 -641 -102 -1005 -171 -102 -20 -210 -40 -240 -45 -218 -36 -400
-64 -552 -84 -170 -22 -180 -25 -225 -58 -27 -19 -59 -38 -73 -42 -65 -19 -87
-75 -50 -122 11 -14 20 -34 20 -44 0 -27 15 -24 40 8 14 19 19 35 15 54 -5 22
-2 28 18 33 14 3 46 23 71 44 42 35 62 42 184 70 226 51 478 96 1062 192 305
50 636 109 735 130 310 67 1036 176 1455 220 209 22 220 24 220 40 0 10 -81
12 -145 3z"/>
<path d="M21155 2298 c-217 -188 -547 -485 -795 -712 -228 -209 -297 -259
-325 -236 -44 36 10 151 133 281 46 49 82 92 79 96 -19 18 -193 -171 -236
-256 -27 -53 -35 -104 -20 -132 16 -32 28 -39 64 -39 82 0 203 101 810 685
390 374 451 435 440 435 -5 0 -73 -55 -150 -122z"/>
<path d="M21872 2304 c-36 -22 -55 -44 -37 -44 13 0 62 30 75 45 21 26 7 26
-38 -1z"/>
<path d="M11780 2231 c-72 -22 -119 -63 -145 -123 -32 -78 -17 -132 64 -227
47 -55 130 -125 139 -117 2 3 -15 27 -38 53 l-42 48 63 6 c75 7 115 25 157 73
58 66 66 153 20 212 l-22 27 45 -5 c24 -3 53 -9 64 -14 18 -7 18 -6 7 9 -19
23 -93 45 -192 57 -46 5 -87 10 -90 9 -3 0 -16 -4 -30 -8z m128 -77 c32 -21
31 -92 -2 -123 -59 -55 -141 -46 -162 19 -20 60 7 106 69 120 36 9 62 4 95
-16z m-200 -74 c-1 -66 54 -110 138 -110 42 0 51 5 90 44 48 47 59 36 24 -22
-41 -67 -123 -95 -195 -67 -77 29 -113 102 -81 164 9 17 18 31 21 31 2 0 3
-18 3 -40z"/>
<path d="M20513 2122 c-116 -89 -326 -274 -354 -314 -13 -17 -16 -29 -9 -33 6
-4 66 46 133 112 67 65 165 154 217 197 120 100 125 105 119 110 -2 3 -50 -30
-106 -72z"/>
<path d="M22804 2125 c-9 -24 15 -45 52 -45 43 0 53 18 24 42 -27 22 -68 24
-76 3z"/>
<path d="M340 2056 c0 -20 11 -28 78 -55 42 -17 81 -31 86 -31 14 0 -24 38
-75 76 -56 41 -89 45 -89 10z"/>
<path d="M22690 1966 c0 -7 28 -37 62 -65 65 -53 110 -66 122 -35 11 28 -14
55 -77 85 -67 31 -107 37 -107 15z"/>
<path d="M576 1962 c-8 -13 7 -30 37 -41 57 -22 65 -4 13 28 -37 23 -43 25
-50 13z"/>
<path d="M22128 1889 c-21 -12 -24 -39 -5 -39 17 0 37 20 37 37 0 15 -9 16
-32 2z"/>
<path d="M644 1765 c-6 -15 42 -85 58 -85 13 0 2 47 -18 78 -17 25 -32 28 -40
7z"/>
<path d="M21797 1640 c-195 -128 -260 -187 -129 -115 78 43 250 154 305 197
35 28 47 48 29 48 -5 0 -97 -58 -205 -130z"/>
<path d="M22717 1703 c-21 -20 17 -73 53 -73 33 0 26 46 -10 65 -33 17 -34 17
-43 8z"/>
<path d="M802 1638 c-19 -19 -14 -73 9 -102 24 -30 24 -85 -2 -268 -12 -93
-12 -105 13 -250 44 -254 29 -431 -67 -827 -25 -101 -45 -185 -45 -187 0 -2
11 -4 25 -4 28 0 29 2 69 198 110 523 173 1021 131 1022 -11 1 -11 2 -21 -115
l-7 -80 -15 45 c-15 45 -22 301 -13 446 3 55 1 66 -24 98 -30 39 -35 42 -53
24z"/>
<path d="M667 1603 c-14 -13 -7 -60 11 -76 27 -25 32 -21 32 21 0 46 -23 75
-43 55z"/>
<path d="M21464 1446 c-10 -8 -16 -17 -12 -21 11 -11 48 5 48 21 0 18 -11 18
-36 0z"/>
<path d="M22239 1410 c-34 -22 119 -230 169 -230 51 0 35 48 -49 149 -56 68
-97 95 -120 81z"/>
<path d="M22430 1375 c-10 -13 -10 -19 5 -35 25 -28 55 -26 55 3 0 42 -36 61
-60 32z"/>
<path d="M21190 1324 c-170 -74 -245 -100 -369 -130 -58 -13 -141 -36 -184
-50 -44 -13 -161 -45 -260 -70 -434 -109 -730 -160 -1092 -189 -457 -36 -531
-51 -748 -152 l-119 -55 -186 -19 c-219 -23 -275 -32 -389 -65 -220 -64 -729
-296 -1148 -523 l-130 -71 67 0 c65 0 73 3 285 108 120 59 301 144 403 189
427 188 586 238 835 263 277 28 266 25 429 105 83 41 185 85 227 99 88 29 257
57 529 86 320 34 496 59 660 91 248 49 536 117 650 153 58 19 168 54 245 78
174 56 496 209 435 207 -8 0 -71 -25 -140 -55z"/>
<path d="M1075 1318 c-67 -24 -49 -60 26 -51 l49 6 -6 -44 c-5 -40 -2 -49 35
-98 23 -29 41 -60 41 -70 0 -14 2 -14 10 -1 17 27 11 50 -25 86 l-35 35 16 37
c27 61 29 84 9 99 -22 15 -78 16 -120 1z"/>
<path d="M676 1294 c-6 -16 26 -88 44 -99 13 -8 13 70 0 96 -13 23 -36 25 -44
3z"/>
<path d="M22010 1095 c0 -30 32 -65 60 -65 17 0 19 4 14 28 -14 58 -74 89 -74
37z"/>
<path d="M700 1055 c-15 -18 -9 -64 14 -119 22 -53 36 -36 36 43 0 81 -20 112
-50 76z"/>
<path d="M1260 877 c0 -2 20 -66 45 -143 25 -76 55 -175 65 -219 25 -104 50
-316 50 -427 l0 -88 27 0 26 0 -7 100 c-5 77 -3 100 6 100 28 0 88 22 83 30
-3 5 -19 11 -35 15 -41 9 -67 46 -75 108 -17 123 -101 418 -142 500 -7 15 -20
27 -28 27 -8 0 -15 -2 -15 -3z"/>
<path d="M1016 812 c-66 -129 -57 -176 41 -223 63 -30 64 -31 57 -64 -3 -18
-1 -57 5 -87 6 -29 13 -84 17 -122 4 -51 9 -65 15 -53 10 17 15 155 9 219 -3
29 1 43 18 58 27 25 28 61 4 83 -10 9 -47 23 -82 31 -96 23 -105 48 -59 155
22 51 22 51 9 51 -5 0 -21 -21 -34 -48z"/>
<path d="M11090 851 c-102 -31 -160 -105 -160 -203 0 -66 15 -119 40 -150 l20
-23 -6 28 c-7 32 -8 32 41 7 50 -26 136 -26 190 -1 109 49 157 185 94 265
l-21 27 28 -7 c16 -4 37 -11 47 -16 31 -16 19 11 -15 32 -61 37 -198 59 -258
41z m128 -77 c32 -21 31 -92 -2 -123 -59 -55 -141 -46 -162 19 -20 60 7 106
69 120 36 9 62 4 95 -16z m-200 -74 c-1 -66 54 -110 138 -110 42 0 51 5 90 44
48 47 59 36 24 -22 -41 -67 -123 -95 -195 -67 -77 29 -113 102 -81 164 9 17
18 31 21 31 2 0 3 -18 3 -40z"/>
<path d="M21360 814 c0 -24 99 -191 133 -225 25 -25 77 -41 77 -23 0 16 -68
123 -121 190 -57 71 -89 92 -89 58z"/>
<path d="M686 804 c-10 -25 -6 -87 7 -118 11 -25 14 -27 26 -13 16 20 26 87
17 121 -7 29 -40 36 -50 10z"/>
<path d="M20604 667 c-15 -41 59 -163 135 -220 27 -21 78 -69 115 -108 37 -39
69 -69 72 -66 3 3 -11 38 -32 79 -28 52 -64 98 -129 163 -50 50 -99 107 -110
128 -20 37 -41 48 -51 24z"/>
<path d="M20780 653 c0 -24 80 -163 80 -141 0 24 -60 158 -71 158 -5 0 -9 -8
-9 -17z"/>
<path d="M21620 622 c0 -23 19 -42 42 -42 21 0 24 30 6 48 -18 18 -48 15 -48
-6z"/>
<path d="M20465 574 c-38 -7 -124 -18 -189 -24 -111 -9 -451 -71 -505 -92 -17
-6 -21 -12 -14 -19 8 -8 75 1 229 31 187 36 228 41 284 35 100 -12 121 -10
200 15 l73 23 29 -32 c36 -40 45 -34 29 19 -11 36 -37 62 -58 59 -4 -1 -39 -8
-78 -15z"/>
<path d="M21040 547 c0 -29 29 -57 58 -57 28 0 29 33 2 60 -28 28 -60 26 -60
-3z"/>
<path d="M1802 503 c2 -27 8 -39 21 -41 12 -3 17 3 17 21 0 36 -10 57 -27 57
-10 0 -13 -10 -11 -37z"/>
<path d="M21267 513 c-14 -13 -7 -42 12 -52 29 -16 45 9 25 37 -16 23 -26 27
-37 15z"/>
<path d="M656 482 c-12 -20 -17 -90 -8 -127 l9 -40 13 30 c7 17 15 56 18 88 4
47 2 57 -11 57 -9 0 -18 -4 -21 -8z"/>
<path d="M19263 414 c-82 -18 -238 -63 -444 -129 -91 -29 -217 -67 -280 -85
-148 -41 -344 -112 -439 -158 l-75 -37 45 -3 c45 -4 197 27 280 55 25 9 90 40
145 69 156 81 438 173 630 203 39 6 131 18 205 26 132 14 240 39 240 54 0 8
-153 22 -214 20 -17 -1 -59 -7 -93 -15z"/>
<path d="M20900 414 c0 -3 9 -19 20 -34 11 -16 37 -61 56 -101 20 -40 45 -84
55 -99 11 -14 32 -59 47 -100 22 -58 32 -76 49 -78 21 -3 20 0 -13 67 -19 39
-38 91 -43 115 -5 30 -20 59 -43 84 -19 21 -50 64 -69 95 -18 31 -39 57 -46
57 -7 0 -13 -3 -13 -6z"/>
<path d="M20647 403 c-13 -21 143 -166 160 -149 6 6 -27 56 -37 56 -5 0 -33
23 -63 50 -31 28 -58 47 -60 43z"/>
<path d="M20104 345 c-15 -38 22 -125 52 -125 21 0 18 53 -6 100 -21 42 -37
50 -46 25z"/>
<path d="M19800 290 c0 -48 43 -96 62 -68 9 15 2 57 -14 75 -17 20 -48 16 -48
-7z"/>
<path d="M1850 161 c0 -134 6 -161 36 -161 13 0 24 6 24 13 0 14 -25 167 -36
215 -13 62 -24 31 -24 -67z"/>
<path d="M616 222 c-3 -5 -8 -40 -12 -78 -6 -61 -5 -67 8 -54 34 34 51 140 24
140 -8 0 -17 -4 -20 -8z"/>
<path d="M19040 185 c-25 -30 13 -121 46 -108 19 7 18 73 -2 101 -18 26 -27
27 -44 7z"/>
<path d="M20860 163 c1 -14 30 -47 36 -41 10 11 -7 48 -22 48 -8 0 -14 -3 -14
-7z"/>
<path d="M20968 155 c-3 -3 5 -31 17 -63 12 -31 25 -65 28 -74 4 -10 14 -18
22 -18 20 0 15 21 -26 103 -30 58 -32 61 -41 52z"/>
<path d="M1140 65 c0 -51 3 -65 15 -65 12 0 15 14 15 65 0 51 -3 65 -15 65
-12 0 -15 -14 -15 -65z"/>
</g>
</svg>
